%YAML 1.1
%TAG !u! tag:unity3d.com,2011:
--- !u!43 &4300000
Mesh:
  serializedVersion: 8
  m_ObjectHideFlags: 0
  m_PrefabParentObject: {fileID: 0}
  m_PrefabInternal: {fileID: 0}
  m_Name: wpn__sabers_01_04__trail_r
  m_SubMeshes:
  - serializedVersion: 2
    firstByte: 0
    indexCount: 36
    topology: 0
    firstVertex: 0
    vertexCount: 12
    localAABB:
      m_Center: {x: 46.252975, y: 149.06775, z: 50.250824}
      m_Extent: {x: 36.881073, y: 0.06291199, z: 34.200012}
  m_Shapes:
    vertices: []
    shapes: []
    channels: []
    fullWeights: []
  m_BindPose:
  - e00: 1
    e01: -0
    e02: -0
    e03: -19.098064
    e10: 0
    e11: -1
    e12: -1.2608473E-16
    e13: 149.33412
    e20: -0
    e21: 1.2246469E-16
    e22: -1.02956
    e23: 52.345974
    e30: 0
    e31: 0
    e32: 0
    e33: 1
  - e00: 1
    e01: -0
    e02: -0
    e03: -39.09779
    e10: 0
    e11: -1
    e12: -1.2608473E-16
    e13: 149.33412
    e20: -0
    e21: 1.2246469E-16
    e22: -1.02956
    e23: 52.345974
    e30: 0
    e31: 0
    e32: 0
    e33: 1
  - e00: 1
    e01: -0
    e02: -0
    e03: -59.09751
    e10: 0
    e11: -1
    e12: -1.2608473E-16
    e13: 149.33412
    e20: -0
    e21: 1.2246469E-16
    e22: -1.02956
    e23: 52.345974
    e30: 0
    e31: 0
    e32: 0
    e33: 1
  - e00: 1
    e01: -0
    e02: -0
    e03: -79.09724
    e10: 0
    e11: -1
    e12: -1.2608473E-16
    e13: 149.33412
    e20: -0
    e21: 1.2246469E-16
    e22: -1.02956
    e23: 52.345974
    e30: 0
    e31: 0
    e32: 0
    e33: 1
  m_BoneNameHashes:
  - 2647831189
  - 1962673148
  - 1874314302
  - 2245943219
  m_RootBoneNameHash: 2245943219
  m_MeshCompression: 0
  m_IsReadable: 1
  m_KeepVertices: 1
  m_KeepIndices: 1
  m_IndexBuffer: 0000010002000000020003000400000003000400030005000600040005000600050007000800010000000800090001000a00080000000a00000004000b000a0004000b0004000600
  m_Skin:
  - weight[0]: 1
    weight[1]: 0
    weight[2]: 0
    weight[3]: 0
    boneIndex[0]: 1
    boneIndex[1]: 0
    boneIndex[2]: 0
    boneIndex[3]: 0
  - weight[0]: 1
    weight[1]: 0
    weight[2]: 0
    weight[3]: 0
    boneIndex[0]: 0
    boneIndex[1]: 0
    boneIndex[2]: 0
    boneIndex[3]: 0
  - weight[0]: 1
    weight[1]: 0
    weight[2]: 0
    weight[3]: 0
    boneIndex[0]: 0
    boneIndex[1]: 0
    boneIndex[2]: 0
    boneIndex[3]: 0
  - weight[0]: 1
    weight[1]: 0
    weight[2]: 0
    weight[3]: 0
    boneIndex[0]: 1
    boneIndex[1]: 0
    boneIndex[2]: 0
    boneIndex[3]: 0
  - weight[0]: 1
    weight[1]: 0
    weight[2]: 0
    weight[3]: 0
    boneIndex[0]: 2
    boneIndex[1]: 0
    boneIndex[2]: 0
    boneIndex[3]: 0
  - weight[0]: 1
    weight[1]: 0
    weight[2]: 0
    weight[3]: 0
    boneIndex[0]: 2
    boneIndex[1]: 0
    boneIndex[2]: 0
    boneIndex[3]: 0
  - weight[0]: 1
    weight[1]: 0
    weight[2]: 0
    weight[3]: 0
    boneIndex[0]: 3
    boneIndex[1]: 0
    boneIndex[2]: 0
    boneIndex[3]: 0
  - weight[0]: 1
    weight[1]: 0
    weight[2]: 0
    weight[3]: 0
    boneIndex[0]: 3
    boneIndex[1]: 0
    boneIndex[2]: 0
    boneIndex[3]: 0
  - weight[0]: 1
    weight[1]: 0
    weight[2]: 0
    weight[3]: 0
    boneIndex[0]: 1
    boneIndex[1]: 0
    boneIndex[2]: 0
    boneIndex[3]: 0
  - weight[0]: 1
    weight[1]: 0
    weight[2]: 0
    weight[3]: 0
    boneIndex[0]: 0
    boneIndex[1]: 0
    boneIndex[2]: 0
    boneIndex[3]: 0
  - weight[0]: 1
    weight[1]: 0
    weight[2]: 0
    weight[3]: 0
    boneIndex[0]: 2
    boneIndex[1]: 0
    boneIndex[2]: 0
    boneIndex[3]: 0
  - weight[0]: 1
    weight[1]: 0
    weight[2]: 0
    weight[3]: 0
    boneIndex[0]: 3
    boneIndex[1]: 0
    boneIndex[2]: 0
    boneIndex[3]: 0
  m_VertexData:
    m_CurrentChannels: 27
    m_VertexCount: 12
    m_Channels:
    - stream: 0
      offset: 0
      format: 0
      dimension: 3
    - stream: 0
      offset: 12
      format: 0
      dimension: 3
    - stream: 0
      offset: 0
      format: 0
      dimension: 0
    - stream: 1
      offset: 0
      format: 0
      dimension: 2
    - stream: 1
      offset: 8
      format: 0
      dimension: 2
    - stream: 0
      offset: 0
      format: 0
      dimension: 0
    - stream: 0
      offset: 0
      format: 0
      dimension: 0
    - stream: 0
      offset: 0
      format: 0
      dimension: 0
    m_DataSize: 480
    _typelessdata: 42892c42261a1543dfa08342380f4e3f53df003f28d7a03e8512b941261a1543dfa0834287104e3fa1df003f83cfa03e54f31541281c1543ba45a842881e4e3fdfe2003f3d7da03eaaf9ea41281c1543ba45a842881e4e3fe0e2003f377da03e43897c42261a1543dfa0834231234e3fbd93003f8c62a13ed57c4542281c1543ba45a8425b294e3f4f9a003f0a2ea13ea244a642870c154363f28342fd2f4e3fd372003ff389a13e6abe8a423d011543d4e6a842eb414e3f1ae2ff3e23c9a23ec51b1c42732115431268804193094e3f04de003f49f8a03e8a379841732115431268804194094e3f04de003f48f8a03ec51b6c427321154312688041d5194e3f79b9003ff119a13ee20d9e427321154312688041b52b4e3f3e91003ff93ea13eacaaaa3ea7edfc3e232b1f3fa0472d3f00008033a7edfc3e8a2f1f3f0e832d3f00008033000000007bf8aa3e4c572c3facaaaa3e00000000afefaa3ee01b2c3facaa2a3fa7edfc3ebd261f3f300c2d3facaa2a3f00000000e3e6aa3e70e02b3f0000803fa7edfc3e58221f3fc1d02c3f0000803f0000000019deaa3e00a52b3facaaaa3efeff7f3fb1a86a3fa87a2e3f00008033feff7f3f19ad6a3f17b62e3facaa2a3ffeff7f3f4ba46a3f383f2e3f0000803ffeff7f3fe59f6a3fc9032e3f
  m_CompressedMesh:
    m_Vertices:
      m_NumItems: 0
      m_Range: 0
      m_Start: 0
      m_Data:
      m_BitSize: 0
    m_UV:
      m_NumItems: 0
      m_Range: 0
      m_Start: 0
      m_Data:
      m_BitSize: 0
    m_Normals:
      m_NumItems: 0
      m_Range: 0
      m_Start: 0
      m_Data:
      m_BitSize: 0
    m_Tangents:
      m_NumItems: 0
      m_Range: 0
      m_Start: 0
      m_Data:
      m_BitSize: 0
    m_Weights:
      m_NumItems: 0
      m_Data:
      m_BitSize: 0
    m_NormalSigns:
      m_NumItems: 0
      m_Data:
      m_BitSize: 0
    m_TangentSigns:
      m_NumItems: 0
      m_Data:
      m_BitSize: 0
    m_FloatColors:
      m_NumItems: 0
      m_Range: 0
      m_Start: 0
      m_Data:
      m_BitSize: 0
    m_BoneIndices:
      m_NumItems: 0
      m_Data:
      m_BitSize: 0
    m_Triangles:
      m_NumItems: 0
      m_Data:
      m_BitSize: 0
    m_UVInfo: 0
  m_LocalAABB:
    m_Center: {x: 46.252975, y: 149.06775, z: 50.250824}
    m_Extent: {x: 36.881073, y: 0.06291199, z: 34.200012}
  m_MeshUsageFlags: 1
  m_BakedConvexCollisionMesh:
  m_BakedTriangleCollisionMesh:
  m_MeshOptimized: 1
