%YAML 1.1
%TAG !u! tag:unity3d.com,2011:
--- !u!43 &4300000
Mesh:
  serializedVersion: 8
  m_ObjectHideFlags: 0
  m_PrefabParentObject: {fileID: 0}
  m_PrefabInternal: {fileID: 0}
  m_Name: wpn__twohanded_sword_01_03__trail_r
  m_SubMeshes:
  - serializedVersion: 2
    firstByte: 0
    indexCount: 18
    topology: 0
    firstVertex: 0
    vertexCount: 8
    localAABB:
      m_Center: {x: 49.027115, y: 149.28156, z: 84.50678}
      m_Extent: {x: 29.999998, y: 0.052574158, z: 55.53045}
  m_Shapes:
    vertices: []
    shapes: []
    channels: []
    fullWeights: []
  m_BindPose:
  - e00: 1
    e01: 1.9498292E-15
    e02: -1.3322676E-15
    e03: -19.098064
    e10: 1.9498292E-15
    e11: -1
    e12: -7.6719814E-15
    e13: 149.33412
    e20: -1.3322676E-15
    e21: 7.6719814E-15
    e22: -1
    e23: 82.64227
    e30: 0
    e31: 0
    e32: 0
    e33: 1
  - e00: 1
    e01: 1.9498292E-15
    e02: -1.3322676E-15
    e03: -39.09779
    e10: 1.9498292E-15
    e11: -1
    e12: -7.6719814E-15
    e13: 149.33412
    e20: -1.3322676E-15
    e21: 7.6719814E-15
    e22: -1
    e23: 82.64227
    e30: 0
    e31: 0
    e32: 0
    e33: 1
  - e00: 1
    e01: 1.9498292E-15
    e02: -1.3322676E-15
    e03: -59.09751
    e10: 1.9498292E-15
    e11: -1
    e12: -7.6719814E-15
    e13: 149.33412
    e20: -1.3322676E-15
    e21: 7.6719814E-15
    e22: -1
    e23: 82.64227
    e30: 0
    e31: 0
    e32: 0
    e33: 1
  - e00: 1
    e01: 1.9498292E-15
    e02: -1.3322676E-15
    e03: -79.09724
    e10: 1.9498292E-15
    e11: -1
    e12: -7.6719814E-15
    e13: 149.33412
    e20: -1.3322676E-15
    e21: 7.6719814E-15
    e22: -1
    e23: 82.64227
    e30: 0
    e31: 0
    e32: 0
    e33: 1
  m_BoneNameHashes:
  - 656994221
  - 2043129294
  - 3830359406
  - 1154646043
  m_RootBoneNameHash: 1154646043
  m_MeshCompression: 0
  m_IsReadable: 1
  m_KeepVertices: 1
  m_KeepIndices: 1
  m_IndexBuffer: 000001000200000002000300040000000300040003000500060004000500060005000700
  m_Skin:
  - weight[0]: 1
    weight[1]: 0
    weight[2]: 0
    weight[3]: 0
    boneIndex[0]: 1
    boneIndex[1]: 0
    boneIndex[2]: 0
    boneIndex[3]: 0
  - weight[0]: 0.99803925
    weight[1]: 0.0019607544
    weight[2]: 0
    weight[3]: 0
    boneIndex[0]: 0
    boneIndex[1]: 1
    boneIndex[2]: 0
    boneIndex[3]: 0
  - weight[0]: 1
    weight[1]: 0
    weight[2]: 0
    weight[3]: 0
    boneIndex[0]: 0
    boneIndex[1]: 0
    boneIndex[2]: 0
    boneIndex[3]: 0
  - weight[0]: 1
    weight[1]: 0
    weight[2]: 0
    weight[3]: 0
    boneIndex[0]: 1
    boneIndex[1]: 0
    boneIndex[2]: 0
    boneIndex[3]: 0
  - weight[0]: 0.99803925
    weight[1]: 0.0019607544
    weight[2]: 0
    weight[3]: 0
    boneIndex[0]: 2
    boneIndex[1]: 3
    boneIndex[2]: 0
    boneIndex[3]: 0
  - weight[0]: 1
    weight[1]: 0
    weight[2]: 0
    weight[3]: 0
    boneIndex[0]: 2
    boneIndex[1]: 0
    boneIndex[2]: 0
    boneIndex[3]: 0
  - weight[0]: 1
    weight[1]: 0
    weight[2]: 0
    weight[3]: 0
    boneIndex[0]: 3
    boneIndex[1]: 0
    boneIndex[2]: 0
    boneIndex[3]: 0
  - weight[0]: 1
    weight[1]: 0
    weight[2]: 0
    weight[3]: 0
    boneIndex[0]: 3
    boneIndex[1]: 0
    boneIndex[2]: 0
    boneIndex[3]: 0
  m_VertexData:
    m_CurrentChannels: 31
    m_VertexCount: 8
    m_Channels:
    - stream: 0
      offset: 0
      format: 0
      dimension: 3
    - stream: 0
      offset: 12
      format: 0
      dimension: 3
    - stream: 1
      offset: 0
      format: 2
      dimension: 4
    - stream: 1
      offset: 4
      format: 0
      dimension: 2
    - stream: 1
      offset: 12
      format: 0
      dimension: 2
    - stream: 0
      offset: 0
      format: 0
      dimension: 0
    - stream: 0
      offset: 0
      format: 0
      dimension: 0
    - stream: 0
      offset: 0
      format: 0
      dimension: 0
    m_DataSize: 352
    _typelessdata: c51b1c428a55154387cfe741000000000000803f000000008a3798418a55154387cfe741000000000000803f000000008a3798418a551543b6a40b43000000000000803f00000000c51b1c428a551543b6a40b43000000000000803f00000000c51b6c428a55154387cfe741291fac3af2ff7f3f64db7839c51b6c428a551543b6a40b435931ad3af2ff7f3fd2677a39e20d9e428a55154387cfe741eaf72b3bc4ff7f3fa7a2f839e20d9e429f3a154388090c43e9f72b3bc4ff7f3fa8a2f8390000ff55acaaaa3efeff7f3fd7b63d3f15f5e03d0000ff0000008033feff7f3f6ff23d3fe5f4e03d0000ff0000008033000000006ff23d3f4ef66e3f0000ff55acaaaa3e00000000d7b63d3f4ef66e3f0000ffaaacaa2a3ffeff7f3f3d7b3d3f15f5e03d0000ffaaacaa2a3f000000003d7b3d3f4ef66e3f0000fff60000803ffeff7f3fa53f3d3f25f5e03d0000ffff0000803f00000000a53f3d3f4ef66e3f
  m_CompressedMesh:
    m_Vertices:
      m_NumItems: 0
      m_Range: 0
      m_Start: 0
      m_Data:
      m_BitSize: 0
    m_UV:
      m_NumItems: 0
      m_Range: 0
      m_Start: 0
      m_Data:
      m_BitSize: 0
    m_Normals:
      m_NumItems: 0
      m_Range: 0
      m_Start: 0
      m_Data:
      m_BitSize: 0
    m_Tangents:
      m_NumItems: 0
      m_Range: 0
      m_Start: 0
      m_Data:
      m_BitSize: 0
    m_Weights:
      m_NumItems: 0
      m_Data:
      m_BitSize: 0
    m_NormalSigns:
      m_NumItems: 0
      m_Data:
      m_BitSize: 0
    m_TangentSigns:
      m_NumItems: 0
      m_Data:
      m_BitSize: 0
    m_FloatColors:
      m_NumItems: 0
      m_Range: 0
      m_Start: 0
      m_Data:
      m_BitSize: 0
    m_BoneIndices:
      m_NumItems: 0
      m_Data:
      m_BitSize: 0
    m_Triangles:
      m_NumItems: 0
      m_Data:
      m_BitSize: 0
    m_UVInfo: 0
  m_LocalAABB:
    m_Center: {x: 49.027115, y: 149.28156, z: 84.50678}
    m_Extent: {x: 29.999998, y: 0.052574158, z: 55.53045}
  m_MeshUsageFlags: 1
  m_BakedConvexCollisionMesh:
  m_BakedTriangleCollisionMesh:
  m_MeshOptimized: 1
