%YAML 1.1
%TAG !u! tag:unity3d.com,2011:
--- !u!43 &4300000
Mesh:
  serializedVersion: 8
  m_ObjectHideFlags: 0
  m_PrefabParentObject: {fileID: 0}
  m_PrefabInternal: {fileID: 0}
  m_Name: wpn__spear_01_04__trail_r
  m_SubMeshes:
  - serializedVersion: 2
    firstByte: 0
    indexCount: 18
    topology: 0
    firstVertex: 0
    vertexCount: 8
    localAABB:
      m_Center: {x: -48.94284, y: 149.36432, z: 119.545135}
      m_Extent: {x: 30.084272, y: 0.0024261475, z: 18.850616}
  m_Shapes:
    vertices: []
    shapes: []
    channels: []
    fullWeights: []
  m_BindPose:
  - e00: -1
    e01: -0
    e02: -0
    e03: -79.026695
    e10: -0
    e11: -1
    e12: 0
    e13: 149.33412
    e20: -0
    e21: 0
    e22: -1
    e23: 113.391205
    e30: 0
    e31: 0
    e32: 0
    e33: 1
  - e00: -1
    e01: -0
    e02: -0
    e03: -59.026974
    e10: -0
    e11: -1
    e12: 0
    e13: 149.33412
    e20: -0
    e21: 0
    e22: -1
    e23: 113.49647
    e30: 0
    e31: 0
    e32: 0
    e33: 1
  - e00: -1
    e01: -0
    e02: -0
    e03: -39.02725
    e10: -0
    e11: -1
    e12: 0
    e13: 149.33412
    e20: -0
    e21: 0
    e22: -1
    e23: 113.60174
    e30: 0
    e31: 0
    e32: 0
    e33: 1
  - e00: -1
    e01: -0
    e02: -0
    e03: -19.027527
    e10: -0
    e11: -1
    e12: 0
    e13: 149.33412
    e20: -0
    e21: 0
    e22: -1
    e23: 113.707
    e30: 0
    e31: 0
    e32: 0
    e33: 1
  m_BoneNameHashes:
  - 3256801314
  - 3448439722
  - 828147279
  - 931530331
  m_RootBoneNameHash: 3256801314
  m_MeshCompression: 0
  m_IsReadable: 1
  m_KeepVertices: 1
  m_KeepIndices: 1
  m_IndexBuffer: 000001000200000002000300040001000000040005000100060005000400060007000500
  m_Skin:
  - weight[0]: 1
    weight[1]: 0
    weight[2]: 0
    weight[3]: 0
    boneIndex[0]: 2
    boneIndex[1]: 0
    boneIndex[2]: 0
    boneIndex[3]: 0
  - weight[0]: 1
    weight[1]: 0
    weight[2]: 0
    weight[3]: 0
    boneIndex[0]: 2
    boneIndex[1]: 0
    boneIndex[2]: 0
    boneIndex[3]: 0
  - weight[0]: 1
    weight[1]: 0
    weight[2]: 0
    weight[3]: 0
    boneIndex[0]: 3
    boneIndex[1]: 0
    boneIndex[2]: 0
    boneIndex[3]: 0
  - weight[0]: 1
    weight[1]: 0
    weight[2]: 0
    weight[3]: 0
    boneIndex[0]: 3
    boneIndex[1]: 0
    boneIndex[2]: 0
    boneIndex[3]: 0
  - weight[0]: 1
    weight[1]: 0
    weight[2]: 0
    weight[3]: 0
    boneIndex[0]: 1
    boneIndex[1]: 0
    boneIndex[2]: 0
    boneIndex[3]: 0
  - weight[0]: 1
    weight[1]: 0
    weight[2]: 0
    weight[3]: 0
    boneIndex[0]: 1
    boneIndex[1]: 0
    boneIndex[2]: 0
    boneIndex[3]: 0
  - weight[0]: 1
    weight[1]: 0
    weight[2]: 0
    weight[3]: 0
    boneIndex[0]: 0
    boneIndex[1]: 0
    boneIndex[2]: 0
    boneIndex[3]: 0
  - weight[0]: 1
    weight[1]: 0
    weight[2]: 0
    weight[3]: 0
    boneIndex[0]: 0
    boneIndex[1]: 0
    boneIndex[2]: 0
    boneIndex[3]: 0
  m_VertexData:
    m_CurrentChannels: 31
    m_VertexCount: 8
    m_Channels:
    - stream: 0
      offset: 0
      format: 0
      dimension: 3
    - stream: 0
      offset: 12
      format: 0
      dimension: 3
    - stream: 1
      offset: 0
      format: 2
      dimension: 4
    - stream: 1
      offset: 4
      format: 0
      dimension: 2
    - stream: 1
      offset: 12
      format: 0
      dimension: 2
    - stream: 0
      offset: 0
      format: 0
      dimension: 0
    - stream: 0
      offset: 0
      format: 0
      dimension: 0
    - stream: 0
      offset: 0
      format: 0
      dimension: 0
    m_DataSize: 352
    _typelessdata: c51b1cc2a55c154361cfc942000000000000803fb19c07b9c31b1cc2e35d154350650a43000000000000803faa9c07b95ade96c1e35d154350650a43000000000000803fe5a607b95ade96c1a55c154361cfc942000000000000803fe4a607b9c51b6cc2a55c15437d99c942000000000000803fb38e07b9231b6cc2e35d15435d4a0a43000000000000803fb38e07b9e20d9ec2a55c15439863c942000000000000803f058b07b9dc0d9ec2e35d15436a2f0a43000000000000803f068b07b900000055769fab3efcff7f3f5db8383f76889a3e00000055729fab3e000080b430aedd3e146c9b3e0000000000008033000080b4e4cedd3e354d9c3e0000000000008033fcff7f3fb7c8383f99699b3e000000aadee72a3ffcff7f3f01a8383fad0f9a3e000000aa32e72a3f00000037788ddd3e4bf39a3e000000ff0100803ffcff7f3fa797383f81f1983e000000fff4ff7f3f0084183cc46cdd3e1bd5993e
  m_CompressedMesh:
    m_Vertices:
      m_NumItems: 0
      m_Range: 0
      m_Start: 0
      m_Data:
      m_BitSize: 0
    m_UV:
      m_NumItems: 0
      m_Range: 0
      m_Start: 0
      m_Data:
      m_BitSize: 0
    m_Normals:
      m_NumItems: 0
      m_Range: 0
      m_Start: 0
      m_Data:
      m_BitSize: 0
    m_Tangents:
      m_NumItems: 0
      m_Range: 0
      m_Start: 0
      m_Data:
      m_BitSize: 0
    m_Weights:
      m_NumItems: 0
      m_Data:
      m_BitSize: 0
    m_NormalSigns:
      m_NumItems: 0
      m_Data:
      m_BitSize: 0
    m_TangentSigns:
      m_NumItems: 0
      m_Data:
      m_BitSize: 0
    m_FloatColors:
      m_NumItems: 0
      m_Range: 0
      m_Start: 0
      m_Data:
      m_BitSize: 0
    m_BoneIndices:
      m_NumItems: 0
      m_Data:
      m_BitSize: 0
    m_Triangles:
      m_NumItems: 0
      m_Data:
      m_BitSize: 0
    m_UVInfo: 0
  m_LocalAABB:
    m_Center: {x: -48.94284, y: 149.36432, z: 119.545135}
    m_Extent: {x: 30.084272, y: 0.0024261475, z: 18.850616}
  m_MeshUsageFlags: 1
  m_BakedConvexCollisionMesh:
  m_BakedTriangleCollisionMesh:
  m_MeshOptimized: 1
