%YAML 1.1
%TAG !u! tag:unity3d.com,2011:
--- !u!43 &4300000
Mesh:
  serializedVersion: 8
  m_ObjectHideFlags: 0
  m_PrefabParentObject: {fileID: 0}
  m_PrefabInternal: {fileID: 0}
  m_Name: wpn__halberd_01_03__trail_r
  m_SubMeshes:
  - serializedVersion: 2
    firstByte: 0
    indexCount: 18
    topology: 0
    firstVertex: 0
    vertexCount: 8
    localAABB:
      m_Center: {x: -49.027115, y: 149.31743, z: 116.039154}
      m_Extent: {x: 29.999998, y: 0, z: 37.50891}
  m_Shapes:
    vertices: []
    shapes: []
    channels: []
    fullWeights: []
  m_BindPose:
  - e00: -1
    e01: -0
    e02: -0
    e03: -19.027527
    e10: -0
    e11: -1
    e12: 0
    e13: 149.33412
    e20: -0
    e21: 0
    e22: -1
    e23: 113.48328
    e30: 0
    e31: 0
    e32: 0
    e33: 1
  - e00: -1
    e01: -0
    e02: -0
    e03: -39.02725
    e10: -0
    e11: -1
    e12: 0
    e13: 149.33412
    e20: -0
    e21: 0
    e22: -1
    e23: 113.37801
    e30: 0
    e31: 0
    e32: 0
    e33: 1
  - e00: -1
    e01: -0
    e02: -0
    e03: -59.026974
    e10: -0
    e11: -1
    e12: 0
    e13: 149.33412
    e20: -0
    e21: 0
    e22: -1
    e23: 113.27275
    e30: 0
    e31: 0
    e32: 0
    e33: 1
  - e00: -1
    e01: -0
    e02: -0
    e03: -79.026695
    e10: -0
    e11: -1
    e12: 0
    e13: 149.33412
    e20: -0
    e21: 0
    e22: -1
    e23: 113.16748
    e30: 0
    e31: 0
    e32: 0
    e33: 1
  m_BoneNameHashes:
  - 1186973208
  - 3027112229
  - 656071723
  - 2114280013
  m_RootBoneNameHash: 2114280013
  m_MeshCompression: 0
  m_IsReadable: 1
  m_KeepVertices: 1
  m_KeepIndices: 1
  m_IndexBuffer: 000001000200000002000300040001000000040005000100060005000400060007000500
  m_Skin:
  - weight[0]: 1
    weight[1]: 0
    weight[2]: 0
    weight[3]: 0
    boneIndex[0]: 1
    boneIndex[1]: 0
    boneIndex[2]: 0
    boneIndex[3]: 0
  - weight[0]: 1
    weight[1]: 0
    weight[2]: 0
    weight[3]: 0
    boneIndex[0]: 1
    boneIndex[1]: 0
    boneIndex[2]: 0
    boneIndex[3]: 0
  - weight[0]: 1
    weight[1]: 0
    weight[2]: 0
    weight[3]: 0
    boneIndex[0]: 0
    boneIndex[1]: 0
    boneIndex[2]: 0
    boneIndex[3]: 0
  - weight[0]: 1
    weight[1]: 0
    weight[2]: 0
    weight[3]: 0
    boneIndex[0]: 0
    boneIndex[1]: 0
    boneIndex[2]: 0
    boneIndex[3]: 0
  - weight[0]: 1
    weight[1]: 0
    weight[2]: 0
    weight[3]: 0
    boneIndex[0]: 2
    boneIndex[1]: 0
    boneIndex[2]: 0
    boneIndex[3]: 0
  - weight[0]: 1
    weight[1]: 0
    weight[2]: 0
    weight[3]: 0
    boneIndex[0]: 2
    boneIndex[1]: 0
    boneIndex[2]: 0
    boneIndex[3]: 0
  - weight[0]: 1
    weight[1]: 0
    weight[2]: 0
    weight[3]: 0
    boneIndex[0]: 3
    boneIndex[1]: 0
    boneIndex[2]: 0
    boneIndex[3]: 0
  - weight[0]: 1
    weight[1]: 0
    weight[2]: 0
    weight[3]: 0
    boneIndex[0]: 3
    boneIndex[1]: 0
    boneIndex[2]: 0
    boneIndex[3]: 0
  m_VertexData:
    m_CurrentChannels: 27
    m_VertexCount: 8
    m_Channels:
    - stream: 0
      offset: 0
      format: 0
      dimension: 3
    - stream: 0
      offset: 12
      format: 0
      dimension: 3
    - stream: 0
      offset: 0
      format: 0
      dimension: 0
    - stream: 1
      offset: 0
      format: 0
      dimension: 2
    - stream: 1
      offset: 8
      format: 0
      dimension: 2
    - stream: 0
      offset: 0
      format: 0
      dimension: 0
    - stream: 0
      offset: 0
      format: 0
      dimension: 0
    - stream: 0
      offset: 0
      format: 0
      dimension: 0
    m_DataSize: 320
    _typelessdata: c51b1cc2435115437c0f9d42000000000000803f00000000c51b1cc2435115434e8c1943000000000000803f000000008a3798c1435115434e8c1943000000000000803f000000008a3798c1435115437c0f9d42000000000000803f00000000c51b6cc2435115437c0f9d42000000000000803f00000000c51b6cc2435115435c711943000000000000803f00000000e20d9ec2435115437c0f9d42000000000000803f00000000e20d9ec24351154369561943000000000000803f00000000acaaaa3efeff7f3f83ff753fd217d83dacaaaa3e000080b483ff753f0438ba3e00008033000080b43f1b773f0438ba3e00008033feff7f3f3e1b773fd217d83dacaa2a3ffeff7f3fc8e3743fd217d83dacaa2a3f000080b4c8e3743f0438ba3e0000803ffeff7f3f0bc8733fd017d83d5bfe7f3f80b5b5390dc8733f0438ba3e
  m_CompressedMesh:
    m_Vertices:
      m_NumItems: 0
      m_Range: 0
      m_Start: 0
      m_Data:
      m_BitSize: 0
    m_UV:
      m_NumItems: 0
      m_Range: 0
      m_Start: 0
      m_Data:
      m_BitSize: 0
    m_Normals:
      m_NumItems: 0
      m_Range: 0
      m_Start: 0
      m_Data:
      m_BitSize: 0
    m_Tangents:
      m_NumItems: 0
      m_Range: 0
      m_Start: 0
      m_Data:
      m_BitSize: 0
    m_Weights:
      m_NumItems: 0
      m_Data:
      m_BitSize: 0
    m_NormalSigns:
      m_NumItems: 0
      m_Data:
      m_BitSize: 0
    m_TangentSigns:
      m_NumItems: 0
      m_Data:
      m_BitSize: 0
    m_FloatColors:
      m_NumItems: 0
      m_Range: 0
      m_Start: 0
      m_Data:
      m_BitSize: 0
    m_BoneIndices:
      m_NumItems: 0
      m_Data:
      m_BitSize: 0
    m_Triangles:
      m_NumItems: 0
      m_Data:
      m_BitSize: 0
    m_UVInfo: 0
  m_LocalAABB:
    m_Center: {x: -49.027115, y: 149.31743, z: 116.039154}
    m_Extent: {x: 29.999998, y: 0, z: 37.50891}
  m_MeshUsageFlags: 1
  m_BakedConvexCollisionMesh:
  m_BakedTriangleCollisionMesh:
  m_MeshOptimized: 1
