%YAML 1.1
%TAG !u! tag:unity3d.com,2011:
--- !u!43 &4300000
Mesh:
  serializedVersion: 8
  m_ObjectHideFlags: 0
  m_PrefabParentObject: {fileID: 0}
  m_PrefabInternal: {fileID: 0}
  m_Name: wpn__dual_swords_01_02__trail_r
  m_SubMeshes:
  - serializedVersion: 2
    firstByte: 0
    indexCount: 18
    topology: 0
    firstVertex: 0
    vertexCount: 8
    localAABB:
      m_Center: {x: 48.84633, y: 149.59503, z: 49.21708}
      m_Extent: {x: 30.194946, y: 0.031455994, z: 36.678154}
  m_Shapes:
    vertices: []
    shapes: []
    channels: []
    fullWeights: []
  m_BindPose:
  - e00: 1
    e01: -0
    e02: -0
    e03: -19.098064
    e10: 0
    e11: -1
    e12: -1.2246469E-16
    e13: 149.33412
    e20: -0
    e21: 1.2246469E-16
    e22: -1
    e23: 44.9875
    e30: 0
    e31: 0
    e32: 0
    e33: 1
  - e00: 1
    e01: -0
    e02: -0
    e03: -39.09779
    e10: 0
    e11: -1
    e12: -1.2246469E-16
    e13: 149.33412
    e20: -0
    e21: 1.2246469E-16
    e22: -1
    e23: 44.9875
    e30: 0
    e31: 0
    e32: 0
    e33: 1
  - e00: 1
    e01: -0
    e02: -0
    e03: -59.09751
    e10: 0
    e11: -1
    e12: -1.2246469E-16
    e13: 149.33412
    e20: -0
    e21: 1.2246469E-16
    e22: -1
    e23: 44.9875
    e30: 0
    e31: 0
    e32: 0
    e33: 1
  - e00: 1
    e01: -0
    e02: -0
    e03: -79.09724
    e10: 0
    e11: -1
    e12: -1.2246469E-16
    e13: 149.33412
    e20: -0
    e21: 1.2246469E-16
    e22: -1
    e23: 44.9875
    e30: 0
    e31: 0
    e32: 0
    e33: 1
  m_BoneNameHashes:
  - 3578793161
  - 2638450298
  - 2775546998
  - 874200794
  m_RootBoneNameHash: 874200794
  m_MeshCompression: 0
  m_IsReadable: 1
  m_KeepVertices: 1
  m_KeepIndices: 1
  m_IndexBuffer: 000001000200000002000300040000000300040003000500060004000500060005000700
  m_Skin:
  - weight[0]: 0.99803925
    weight[1]: 0.0019607544
    weight[2]: 0
    weight[3]: 0
    boneIndex[0]: 1
    boneIndex[1]: 2
    boneIndex[2]: 0
    boneIndex[3]: 0
  - weight[0]: 1
    weight[1]: 0
    weight[2]: 0
    weight[3]: 0
    boneIndex[0]: 0
    boneIndex[1]: 0
    boneIndex[2]: 0
    boneIndex[3]: 0
  - weight[0]: 1
    weight[1]: 0
    weight[2]: 0
    weight[3]: 0
    boneIndex[0]: 0
    boneIndex[1]: 0
    boneIndex[2]: 0
    boneIndex[3]: 0
  - weight[0]: 1
    weight[1]: 0
    weight[2]: 0
    weight[3]: 0
    boneIndex[0]: 1
    boneIndex[1]: 0
    boneIndex[2]: 0
    boneIndex[3]: 0
  - weight[0]: 1
    weight[1]: 0
    weight[2]: 0
    weight[3]: 0
    boneIndex[0]: 2
    boneIndex[1]: 0
    boneIndex[2]: 0
    boneIndex[3]: 0
  - weight[0]: 1
    weight[1]: 0
    weight[2]: 0
    weight[3]: 0
    boneIndex[0]: 2
    boneIndex[1]: 0
    boneIndex[2]: 0
    boneIndex[3]: 0
  - weight[0]: 1
    weight[1]: 0
    weight[2]: 0
    weight[3]: 0
    boneIndex[0]: 3
    boneIndex[1]: 0
    boneIndex[2]: 0
    boneIndex[3]: 0
  - weight[0]: 1
    weight[1]: 0
    weight[2]: 0
    weight[3]: 0
    boneIndex[0]: 3
    boneIndex[1]: 0
    boneIndex[2]: 0
    boneIndex[3]: 0
  m_VertexData:
    m_CurrentChannels: 31
    m_VertexCount: 8
    m_Channels:
    - stream: 0
      offset: 0
      format: 0
      dimension: 3
    - stream: 0
      offset: 12
      format: 0
      dimension: 3
    - stream: 1
      offset: 0
      format: 2
      dimension: 4
    - stream: 1
      offset: 4
      format: 0
      dimension: 2
    - stream: 1
      offset: 12
      format: 0
      dimension: 2
    - stream: 0
      offset: 0
      format: 0
      dimension: 0
    - stream: 0
      offset: 0
      format: 0
      dimension: 0
    - stream: 0
      offset: 0
      format: 0
      dimension: 0
    m_DataSize: 352
    _typelessdata: c51b1c4261a01543729f4841000000000000803f330614398a37984161a01543729f4841000000000000803fbeef133907369541bc9d1543cf79ab42000000000000803fbeef1339049b1a42bc9d1543cf79ab42000000000000803f0f061439c51b6c4261a01543729f4841f3da2b3afcff7f3f23c1a939049b6a42bc9d1543cf79ab421c292b3afcff7f3f195ea939e20d9e4261a01543729f48413361aa3af0ff7f3fa5e7033a22159e42469015435ccaab423461aa3af0ff7f3fa5e7033aff000055acaaaa3efeff7f3fa2267e3f2262613dff00000000008033feff7f3f3a627e3ffa61613dff0000000000803300000000aac1783fd99f713fff000055acaaaa3e000000001486783fd99f713fff0000aaacaa2a3ffeff7f3f08eb7d3f2262613dff0000aaacaa2a3f000000007a4a783fd99f713fff0000f60000803ffeff7f3f70af7d3f3262613dff0000ff0000803f00000000e20e783fd99f713f
  m_CompressedMesh:
    m_Vertices:
      m_NumItems: 0
      m_Range: 0
      m_Start: 0
      m_Data:
      m_BitSize: 0
    m_UV:
      m_NumItems: 0
      m_Range: 0
      m_Start: 0
      m_Data:
      m_BitSize: 0
    m_Normals:
      m_NumItems: 0
      m_Range: 0
      m_Start: 0
      m_Data:
      m_BitSize: 0
    m_Tangents:
      m_NumItems: 0
      m_Range: 0
      m_Start: 0
      m_Data:
      m_BitSize: 0
    m_Weights:
      m_NumItems: 0
      m_Data:
      m_BitSize: 0
    m_NormalSigns:
      m_NumItems: 0
      m_Data:
      m_BitSize: 0
    m_TangentSigns:
      m_NumItems: 0
      m_Data:
      m_BitSize: 0
    m_FloatColors:
      m_NumItems: 0
      m_Range: 0
      m_Start: 0
      m_Data:
      m_BitSize: 0
    m_BoneIndices:
      m_NumItems: 0
      m_Data:
      m_BitSize: 0
    m_Triangles:
      m_NumItems: 0
      m_Data:
      m_BitSize: 0
    m_UVInfo: 0
  m_LocalAABB:
    m_Center: {x: 48.84633, y: 149.59503, z: 49.21708}
    m_Extent: {x: 30.194946, y: 0.031455994, z: 36.678154}
  m_MeshUsageFlags: 1
  m_BakedConvexCollisionMesh:
  m_BakedTriangleCollisionMesh:
  m_MeshOptimized: 1
