%YAML 1.1
%TAG !u! tag:unity3d.com,2011:
--- !u!43 &4300000
Mesh:
  serializedVersion: 8
  m_ObjectHideFlags: 0
  m_PrefabParentObject: {fileID: 0}
  m_PrefabInternal: {fileID: 0}
  m_Name: wpn__twohanded_sword_01_04__trail_l
  m_SubMeshes:
  - serializedVersion: 2
    firstByte: 0
    indexCount: 18
    topology: 0
    firstVertex: 0
    vertexCount: 8
    localAABB:
      m_Center: {x: -49.027115, y: 149.28156, z: 87.851006}
      m_Extent: {x: 29.999998, y: 0.052574158, z: 51.43522}
  m_Shapes:
    vertices: []
    shapes: []
    channels: []
    fullWeights: []
  m_BindPose:
  - e00: 1
    e01: 6.557255E-16
    e02: 4.440892E-16
    e03: 19.098057
    e10: -6.557255E-16
    e11: 1
    e12: 6.1062266E-16
    e13: -149.33412
    e20: -4.440892E-16
    e21: -6.1062266E-16
    e22: 1
    e23: -82.95805
    e30: 0
    e31: 0
    e32: 0
    e33: 1
  - e00: 1
    e01: 6.557255E-16
    e02: 4.440892E-16
    e03: 39.09778
    e10: -6.557255E-16
    e11: 1
    e12: 6.1062266E-16
    e13: -149.33412
    e20: -4.440892E-16
    e21: -6.1062266E-16
    e22: 1
    e23: -82.8528
    e30: 0
    e31: 0
    e32: 0
    e33: 1
  - e00: 1
    e01: 6.557255E-16
    e02: 4.440892E-16
    e03: 59.097504
    e10: -6.557255E-16
    e11: 1
    e12: 6.1062266E-16
    e13: -149.33412
    e20: -4.440892E-16
    e21: -6.1062266E-16
    e22: 1
    e23: -82.747536
    e30: 0
    e31: 0
    e32: 0
    e33: 1
  - e00: 1
    e01: 6.557255E-16
    e02: 4.440892E-16
    e03: 79.09722
    e10: -6.557255E-16
    e11: 1
    e12: 6.1062266E-16
    e13: -149.33412
    e20: -4.440892E-16
    e21: -6.1062266E-16
    e22: 1
    e23: -82.64227
    e30: 0
    e31: 0
    e32: 0
    e33: 1
  m_BoneNameHashes:
  - 1146427937
  - 2450766548
  - 2715592910
  - 505732530
  m_RootBoneNameHash: 505732530
  m_MeshCompression: 0
  m_IsReadable: 1
  m_KeepVertices: 1
  m_KeepIndices: 1
  m_IndexBuffer: 000001000200000002000300040001000000040005000100060005000400060007000500
  m_Skin:
  - weight[0]: 1
    weight[1]: 0
    weight[2]: 0
    weight[3]: 0
    boneIndex[0]: 1
    boneIndex[1]: 0
    boneIndex[2]: 0
    boneIndex[3]: 0
  - weight[0]: 1
    weight[1]: 0
    weight[2]: 0
    weight[3]: 0
    boneIndex[0]: 1
    boneIndex[1]: 0
    boneIndex[2]: 0
    boneIndex[3]: 0
  - weight[0]: 0.99803925
    weight[1]: 0.0019607544
    weight[2]: 0
    weight[3]: 0
    boneIndex[0]: 0
    boneIndex[1]: 1
    boneIndex[2]: 0
    boneIndex[3]: 0
  - weight[0]: 1
    weight[1]: 0
    weight[2]: 0
    weight[3]: 0
    boneIndex[0]: 0
    boneIndex[1]: 0
    boneIndex[2]: 0
    boneIndex[3]: 0
  - weight[0]: 1
    weight[1]: 0
    weight[2]: 0
    weight[3]: 0
    boneIndex[0]: 2
    boneIndex[1]: 0
    boneIndex[2]: 0
    boneIndex[3]: 0
  - weight[0]: 1
    weight[1]: 0
    weight[2]: 0
    weight[3]: 0
    boneIndex[0]: 2
    boneIndex[1]: 0
    boneIndex[2]: 0
    boneIndex[3]: 0
  - weight[0]: 1
    weight[1]: 0
    weight[2]: 0
    weight[3]: 0
    boneIndex[0]: 3
    boneIndex[1]: 0
    boneIndex[2]: 0
    boneIndex[3]: 0
  - weight[0]: 1
    weight[1]: 0
    weight[2]: 0
    weight[3]: 0
    boneIndex[0]: 3
    boneIndex[1]: 0
    boneIndex[2]: 0
    boneIndex[3]: 0
  m_VertexData:
    m_CurrentChannels: 31
    m_VertexCount: 8
    m_Channels:
    - stream: 0
      offset: 0
      format: 0
      dimension: 3
    - stream: 0
      offset: 12
      format: 0
      dimension: 3
    - stream: 1
      offset: 0
      format: 2
      dimension: 4
    - stream: 1
      offset: 4
      format: 0
      dimension: 2
    - stream: 1
      offset: 12
      format: 0
      dimension: 2
    - stream: 0
      offset: 0
      format: 0
      dimension: 0
    - stream: 0
      offset: 0
      format: 0
      dimension: 0
    - stream: 0
      offset: 0
      format: 0
      dimension: 0
    m_DataSize: 352
    _typelessdata: c51b1cc28a551543c3a91142000000000000803f00000000c51b1cc28a55154346490b43000000000000803f000000008a3798c18a55154346490b43000000000000803f000000008a3798c18a551543c3a91142000000000000803f00000000c51b6cc28a551543c3a91142e354acbaf2ff7f3fb2058639c51b6cc28a55154346490b439bf5abbaf2ff7f3f97bb8539e20d9ec28a551543c3a911424b632cbbc4ff7f3fe610063ae20d9ec29f3a15439e260b434c632cbbc4ff7f3fe610063a0000ff55acaaaa3efeff7f3ff0e5803e1066033c0000ff55acaaaa3e00000000f429823e3faa703f0000ff000000803300000000e87d853ee06f703f0000ff0000008033feff7f3f7ee7823e6094033c0000ffaaacaa2a3ffeff7f3f86c9803e5098073c0000ffaaacaa2a3f00000000c602813e5095703f0000ffff0000803ffeff7f3f0ec1823e9098103c0000ffff0000803f00000000ba01823e233f703f
  m_CompressedMesh:
    m_Vertices:
      m_NumItems: 0
      m_Range: 0
      m_Start: 0
      m_Data:
      m_BitSize: 0
    m_UV:
      m_NumItems: 0
      m_Range: 0
      m_Start: 0
      m_Data:
      m_BitSize: 0
    m_Normals:
      m_NumItems: 0
      m_Range: 0
      m_Start: 0
      m_Data:
      m_BitSize: 0
    m_Tangents:
      m_NumItems: 0
      m_Range: 0
      m_Start: 0
      m_Data:
      m_BitSize: 0
    m_Weights:
      m_NumItems: 0
      m_Data:
      m_BitSize: 0
    m_NormalSigns:
      m_NumItems: 0
      m_Data:
      m_BitSize: 0
    m_TangentSigns:
      m_NumItems: 0
      m_Data:
      m_BitSize: 0
    m_FloatColors:
      m_NumItems: 0
      m_Range: 0
      m_Start: 0
      m_Data:
      m_BitSize: 0
    m_BoneIndices:
      m_NumItems: 0
      m_Data:
      m_BitSize: 0
    m_Triangles:
      m_NumItems: 0
      m_Data:
      m_BitSize: 0
    m_UVInfo: 0
  m_LocalAABB:
    m_Center: {x: -49.027115, y: 149.28156, z: 87.851006}
    m_Extent: {x: 29.999998, y: 0.052574158, z: 51.43522}
  m_MeshUsageFlags: 1
  m_BakedConvexCollisionMesh:
  m_BakedTriangleCollisionMesh:
  m_MeshOptimized: 1
