%YAML 1.1
%TAG !u! tag:unity3d.com,2011:
--- !u!43 &4300000
Mesh:
  serializedVersion: 8
  m_ObjectHideFlags: 0
  m_PrefabParentObject: {fileID: 0}
  m_PrefabInternal: {fileID: 0}
  m_Name: wpn__spear_01_02__trail_r
  m_SubMeshes:
  - serializedVersion: 2
    firstByte: 0
    indexCount: 18
    topology: 0
    firstVertex: 0
    vertexCount: 8
    localAABB:
      m_Center: {x: 48.94284, y: 149.3518, z: 115.38089}
      m_Extent: {x: 30.084272, y: 0, z: 23.071102}
  m_Shapes:
    vertices: []
    shapes: []
    channels: []
    fullWeights: []
  m_BindPose:
  - e00: 1
    e01: -0
    e02: -0
    e03: -79.026695
    e10: 0
    e11: -1
    e12: -1.2246469E-16
    e13: 149.33412
    e20: -0
    e21: 1.2246469E-16
    e22: -1
    e23: 113.391205
    e30: 0
    e31: 0
    e32: 0
    e33: 1
  - e00: 1
    e01: -0
    e02: -0
    e03: -59.026974
    e10: 0
    e11: -1
    e12: -1.2246469E-16
    e13: 149.33412
    e20: -0
    e21: 1.2246469E-16
    e22: -1
    e23: 113.49647
    e30: 0
    e31: 0
    e32: 0
    e33: 1
  - e00: 1
    e01: -0
    e02: -0
    e03: -39.02725
    e10: 0
    e11: -1
    e12: -1.2246469E-16
    e13: 149.33412
    e20: -0
    e21: 1.2246469E-16
    e22: -1
    e23: 113.60174
    e30: 0
    e31: 0
    e32: 0
    e33: 1
  - e00: 1
    e01: -0
    e02: -0
    e03: -19.027527
    e10: 0
    e11: -1
    e12: -1.2246469E-16
    e13: 149.33412
    e20: -0
    e21: 1.2246469E-16
    e22: -1
    e23: 113.707
    e30: 0
    e31: 0
    e32: 0
    e33: 1
  m_BoneNameHashes:
  - 3256801314
  - 3448439722
  - 828147279
  - 931530331
  m_RootBoneNameHash: 3256801314
  m_MeshCompression: 0
  m_IsReadable: 1
  m_KeepVertices: 1
  m_KeepIndices: 1
  m_IndexBuffer: 000001000200000002000300040000000300040003000500060004000500060005000700
  m_Skin:
  - weight[0]: 1
    weight[1]: 0
    weight[2]: 0
    weight[3]: 0
    boneIndex[0]: 2
    boneIndex[1]: 0
    boneIndex[2]: 0
    boneIndex[3]: 0
  - weight[0]: 1
    weight[1]: 0
    weight[2]: 0
    weight[3]: 0
    boneIndex[0]: 3
    boneIndex[1]: 0
    boneIndex[2]: 0
    boneIndex[3]: 0
  - weight[0]: 1
    weight[1]: 0
    weight[2]: 0
    weight[3]: 0
    boneIndex[0]: 3
    boneIndex[1]: 0
    boneIndex[2]: 0
    boneIndex[3]: 0
  - weight[0]: 1
    weight[1]: 0
    weight[2]: 0
    weight[3]: 0
    boneIndex[0]: 2
    boneIndex[1]: 0
    boneIndex[2]: 0
    boneIndex[3]: 0
  - weight[0]: 1
    weight[1]: 0
    weight[2]: 0
    weight[3]: 0
    boneIndex[0]: 1
    boneIndex[1]: 0
    boneIndex[2]: 0
    boneIndex[3]: 0
  - weight[0]: 1
    weight[1]: 0
    weight[2]: 0
    weight[3]: 0
    boneIndex[0]: 1
    boneIndex[1]: 0
    boneIndex[2]: 0
    boneIndex[3]: 0
  - weight[0]: 1
    weight[1]: 0
    weight[2]: 0
    weight[3]: 0
    boneIndex[0]: 0
    boneIndex[1]: 0
    boneIndex[2]: 0
    boneIndex[3]: 0
  - weight[0]: 1
    weight[1]: 0
    weight[2]: 0
    weight[3]: 0
    boneIndex[0]: 0
    boneIndex[1]: 0
    boneIndex[2]: 0
    boneIndex[3]: 0
  m_VertexData:
    m_CurrentChannels: 31
    m_VertexCount: 8
    m_Channels:
    - stream: 0
      offset: 0
      format: 0
      dimension: 3
    - stream: 0
      offset: 12
      format: 0
      dimension: 3
    - stream: 1
      offset: 0
      format: 2
      dimension: 4
    - stream: 1
      offset: 4
      format: 0
      dimension: 2
    - stream: 1
      offset: 12
      format: 0
      dimension: 2
    - stream: 0
      offset: 0
      format: 0
      dimension: 0
    - stream: 0
      offset: 0
      format: 0
      dimension: 0
    - stream: 0
      offset: 0
      format: 0
      dimension: 0
    m_DataSize: 352
    _typelessdata: c51b1c42105a15439e9eb842000000000000803f000000005ade9641105a15439e9eb842000000000000803f000000005ade9641105a1543b6730a43000000000000803f00000000c31b1c42105a1543b6730a43000000000000803f00000000c51b6c42105a15439e9eb842000000000000803f00000000231b6c42105a1543c3580a43000000000000803f00000000e20d9e42105a15439d9eb842000000000000803f00000000dc0d9e42105a1543d03d0a43000000000000803f0000000000780055769fab3efcff7f3f719bb73eb264083f0078000000008033fcff7f3f25bcb73e3957093f0078000000008033000080b4f25a783d1e7a033f00780055729fab3e000080b44255773d9887023f007800aadee72a3ffcff7f3fb97ab73e58a6073f007800aa32e72a3f00000037924f763d3ec9013f007800ff0100803ffcff7f3f055ab73ea47f063f007800fff4ff7f3f0084183ce249753d88a2003f
  m_CompressedMesh:
    m_Vertices:
      m_NumItems: 0
      m_Range: 0
      m_Start: 0
      m_Data:
      m_BitSize: 0
    m_UV:
      m_NumItems: 0
      m_Range: 0
      m_Start: 0
      m_Data:
      m_BitSize: 0
    m_Normals:
      m_NumItems: 0
      m_Range: 0
      m_Start: 0
      m_Data:
      m_BitSize: 0
    m_Tangents:
      m_NumItems: 0
      m_Range: 0
      m_Start: 0
      m_Data:
      m_BitSize: 0
    m_Weights:
      m_NumItems: 0
      m_Data:
      m_BitSize: 0
    m_NormalSigns:
      m_NumItems: 0
      m_Data:
      m_BitSize: 0
    m_TangentSigns:
      m_NumItems: 0
      m_Data:
      m_BitSize: 0
    m_FloatColors:
      m_NumItems: 0
      m_Range: 0
      m_Start: 0
      m_Data:
      m_BitSize: 0
    m_BoneIndices:
      m_NumItems: 0
      m_Data:
      m_BitSize: 0
    m_Triangles:
      m_NumItems: 0
      m_Data:
      m_BitSize: 0
    m_UVInfo: 0
  m_LocalAABB:
    m_Center: {x: 48.94284, y: 149.3518, z: 115.38089}
    m_Extent: {x: 30.084272, y: 0, z: 23.071102}
  m_MeshUsageFlags: 1
  m_BakedConvexCollisionMesh:
  m_BakedTriangleCollisionMesh:
  m_MeshOptimized: 1
