%YAML 1.1
%TAG !u! tag:unity3d.com,2011:
--- !u!43 &4300000
Mesh:
  serializedVersion: 8
  m_ObjectHideFlags: 0
  m_PrefabParentObject: {fileID: 0}
  m_PrefabInternal: {fileID: 0}
  m_Name: wpn__onehanded_sword_02_02__trail_l
  m_SubMeshes:
  - serializedVersion: 2
    firstByte: 0
    indexCount: 18
    topology: 0
    firstVertex: 0
    vertexCount: 8
    localAABB:
      m_Center: {x: -49.109467, y: 149.28018, z: 66.51823}
      m_Extent: {x: 30.082346, y: 0.053962708, z: 31.682106}
  m_Shapes:
    vertices: []
    shapes: []
    channels: []
    fullWeights: []
  m_BindPose:
  - e00: 1
    e01: 6.7654216E-16
    e02: 5.551115E-16
    e03: 19.027485
    e10: -6.7654216E-16
    e11: 1
    e12: 5.551115E-16
    e13: -149.33412
    e20: -5.551115E-16
    e21: -5.551115E-16
    e22: 1
    e23: -58
    e30: 0
    e31: 0
    e32: 0
    e33: 1
  - e00: 1
    e01: 6.7654216E-16
    e02: 5.551115E-16
    e03: 39.027206
    e10: -6.7654216E-16
    e11: 1
    e12: 5.551115E-16
    e13: -149.33412
    e20: -5.551115E-16
    e21: -5.551115E-16
    e22: 1
    e23: -58
    e30: 0
    e31: 0
    e32: 0
    e33: 1
  - e00: 1
    e01: 6.7654216E-16
    e02: 5.551115E-16
    e03: 59.02693
    e10: -6.7654216E-16
    e11: 1
    e12: 5.551115E-16
    e13: -149.33412
    e20: -5.551115E-16
    e21: -5.551115E-16
    e22: 1
    e23: -58
    e30: 0
    e31: 0
    e32: 0
    e33: 1
  - e00: 1
    e01: 6.7654216E-16
    e02: 5.551115E-16
    e03: 79.02665
    e10: -6.7654216E-16
    e11: 1
    e12: 5.551115E-16
    e13: -149.33412
    e20: -5.551115E-16
    e21: -5.551115E-16
    e22: 1
    e23: -58
    e30: 0
    e31: 0
    e32: 0
    e33: 1
  m_BoneNameHashes:
  - 1837908994
  - 2072238324
  - 3594433480
  - 555597715
  m_RootBoneNameHash: 555597715
  m_MeshCompression: 0
  m_IsReadable: 1
  m_KeepVertices: 1
  m_KeepIndices: 1
  m_IndexBuffer: 000001000200000002000300040001000000040005000100060005000400060007000500
  m_Skin:
  - weight[0]: 1
    weight[1]: 0
    weight[2]: 0
    weight[3]: 0
    boneIndex[0]: 1
    boneIndex[1]: 0
    boneIndex[2]: 0
    boneIndex[3]: 0
  - weight[0]: 1
    weight[1]: 0
    weight[2]: 0
    weight[3]: 0
    boneIndex[0]: 1
    boneIndex[1]: 0
    boneIndex[2]: 0
    boneIndex[3]: 0
  - weight[0]: 1
    weight[1]: 0
    weight[2]: 0
    weight[3]: 0
    boneIndex[0]: 0
    boneIndex[1]: 0
    boneIndex[2]: 0
    boneIndex[3]: 0
  - weight[0]: 1
    weight[1]: 0
    weight[2]: 0
    weight[3]: 0
    boneIndex[0]: 0
    boneIndex[1]: 0
    boneIndex[2]: 0
    boneIndex[3]: 0
  - weight[0]: 1
    weight[1]: 0
    weight[2]: 0
    weight[3]: 0
    boneIndex[0]: 2
    boneIndex[1]: 0
    boneIndex[2]: 0
    boneIndex[3]: 0
  - weight[0]: 1
    weight[1]: 0
    weight[2]: 0
    weight[3]: 0
    boneIndex[0]: 2
    boneIndex[1]: 0
    boneIndex[2]: 0
    boneIndex[3]: 0
  - weight[0]: 1
    weight[1]: 0
    weight[2]: 0
    weight[3]: 0
    boneIndex[0]: 3
    boneIndex[1]: 0
    boneIndex[2]: 0
    boneIndex[3]: 0
  - weight[0]: 1
    weight[1]: 0
    weight[2]: 0
    weight[3]: 0
    boneIndex[0]: 3
    boneIndex[1]: 0
    boneIndex[2]: 0
    boneIndex[3]: 0
  m_VertexData:
    m_CurrentChannels: 31
    m_VertexCount: 8
    m_Channels:
    - stream: 0
      offset: 0
      format: 0
      dimension: 3
    - stream: 0
      offset: 12
      format: 0
      dimension: 3
    - stream: 1
      offset: 0
      format: 2
      dimension: 4
    - stream: 1
      offset: 4
      format: 0
      dimension: 2
    - stream: 1
      offset: 12
      format: 0
      dimension: 2
    - stream: 0
      offset: 0
      format: 0
      dimension: 0
    - stream: 0
      offset: 0
      format: 0
      dimension: 0
    - stream: 0
      offset: 0
      format: 0
      dimension: 0
    m_DataSize: 352
    _typelessdata: c51b1cc28a55154330580b42000000000000803fa71937386ac41cc2d45415439266c442000000000000803fa6193738d48899c1d45415439266c442000000000000803fa51937388a3798c18a55154330580b42000000000000803fa5193738c51b6cc28a55154330580b428b11acbaf0ff7f3fa85dee396ac46cc2d45415439266c4423f59acbaf0ff7f3f74b7ee39e20d9ec28a55154330580b42c06c2cbbc0ff7f3f445e633a35629ec2e93915435f30c442c06c2cbbc0ff7f3f445e633aff000055acaaaa3efeff7f3ffa54173fbcad003eff000055acaaaa3e000000004d6c163f20376f3fff0000000000803300000000c138173f480c6f3fff00000000008033feff7f3f39d0173fdaaf003eff0000aaacaa2a3ffeff7f3f284e173f02df003eff0000aaacaa2a3f000000007525163fc2276f3fff0000ff0000803ffeff7f3f00c7173fb648013eff0000ff0000803f00000000a562163f83e86e3f
  m_CompressedMesh:
    m_Vertices:
      m_NumItems: 0
      m_Range: 0
      m_Start: 0
      m_Data:
      m_BitSize: 0
    m_UV:
      m_NumItems: 0
      m_Range: 0
      m_Start: 0
      m_Data:
      m_BitSize: 0
    m_Normals:
      m_NumItems: 0
      m_Range: 0
      m_Start: 0
      m_Data:
      m_BitSize: 0
    m_Tangents:
      m_NumItems: 0
      m_Range: 0
      m_Start: 0
      m_Data:
      m_BitSize: 0
    m_Weights:
      m_NumItems: 0
      m_Data:
      m_BitSize: 0
    m_NormalSigns:
      m_NumItems: 0
      m_Data:
      m_BitSize: 0
    m_TangentSigns:
      m_NumItems: 0
      m_Data:
      m_BitSize: 0
    m_FloatColors:
      m_NumItems: 0
      m_Range: 0
      m_Start: 0
      m_Data:
      m_BitSize: 0
    m_BoneIndices:
      m_NumItems: 0
      m_Data:
      m_BitSize: 0
    m_Triangles:
      m_NumItems: 0
      m_Data:
      m_BitSize: 0
    m_UVInfo: 0
  m_LocalAABB:
    m_Center: {x: -49.109467, y: 149.28018, z: 66.51823}
    m_Extent: {x: 30.082346, y: 0.053962708, z: 31.682106}
  m_MeshUsageFlags: 1
  m_BakedConvexCollisionMesh:
  m_BakedTriangleCollisionMesh:
  m_MeshOptimized: 1
