%YAML 1.1
%TAG !u! tag:unity3d.com,2011:
--- !u!43 &4300000
Mesh:
  serializedVersion: 8
  m_ObjectHideFlags: 0
  m_PrefabParentObject: {fileID: 0}
  m_PrefabInternal: {fileID: 0}
  m_Name: wpn__axe_02_02__trail_r
  m_SubMeshes:
  - serializedVersion: 2
    firstByte: 0
    indexCount: 18
    topology: 0
    firstVertex: 0
    vertexCount: 8
    localAABB:
      m_Center: {x: 49.027115, y: 149.28156, z: 38.77326}
      m_Extent: {x: 29.999998, y: 0.052574158, z: 13.044674}
  m_Shapes:
    vertices: []
    shapes: []
    channels: []
    fullWeights: []
  m_BindPose:
  - e00: 1
    e01: -0
    e02: -0
    e03: -79.026695
    e10: 0
    e11: -1
    e12: -7.6719814E-15
    e13: 149.33412
    e20: -0
    e21: 7.6719814E-15
    e22: -1
    e23: 36.912777
    e30: 0
    e31: 0
    e32: 0
    e33: 1
  - e00: 1
    e01: -0
    e02: -0
    e03: -59.026974
    e10: 0
    e11: -1
    e12: -7.6719814E-15
    e13: 149.33412
    e20: -0
    e21: 7.6719814E-15
    e22: -1
    e23: 37.018044
    e30: 0
    e31: 0
    e32: 0
    e33: 1
  - e00: 1
    e01: -0
    e02: -0
    e03: -39.02725
    e10: 0
    e11: -1
    e12: -7.6719814E-15
    e13: 149.33412
    e20: -0
    e21: 7.6719814E-15
    e22: -1
    e23: 37.12331
    e30: 0
    e31: 0
    e32: 0
    e33: 1
  - e00: 1
    e01: -0
    e02: -0
    e03: -19.027527
    e10: 0
    e11: -1
    e12: -7.6719814E-15
    e13: 149.33412
    e20: -0
    e21: 7.6719814E-15
    e22: -1
    e23: 37.228577
    e30: 0
    e31: 0
    e32: 0
    e33: 1
  m_BoneNameHashes:
  - 3895503325
  - 2199191236
  - 3624375531
  - 466296521
  m_RootBoneNameHash: 3895503325
  m_MeshCompression: 0
  m_IsReadable: 1
  m_KeepVertices: 1
  m_KeepIndices: 1
  m_IndexBuffer: 000001000200000002000300040000000300040003000500060004000500060005000700
  m_Skin:
  - weight[0]: 1
    weight[1]: 0
    weight[2]: 0
    weight[3]: 0
    boneIndex[0]: 2
    boneIndex[1]: 0
    boneIndex[2]: 0
    boneIndex[3]: 0
  - weight[0]: 1
    weight[1]: 0
    weight[2]: 0
    weight[3]: 0
    boneIndex[0]: 3
    boneIndex[1]: 0
    boneIndex[2]: 0
    boneIndex[3]: 0
  - weight[0]: 0.9965085
    weight[1]: 0.0034915104
    weight[2]: 0
    weight[3]: 0
    boneIndex[0]: 3
    boneIndex[1]: 0
    boneIndex[2]: 0
    boneIndex[3]: 0
  - weight[0]: 0.99999994
    weight[1]: 0
    weight[2]: 0
    weight[3]: 0
    boneIndex[0]: 2
    boneIndex[1]: 0
    boneIndex[2]: 0
    boneIndex[3]: 0
  - weight[0]: 1
    weight[1]: 0
    weight[2]: 0
    weight[3]: 0
    boneIndex[0]: 1
    boneIndex[1]: 0
    boneIndex[2]: 0
    boneIndex[3]: 0
  - weight[0]: 0.99880785
    weight[1]: 0.0011921742
    weight[2]: 0
    weight[3]: 0
    boneIndex[0]: 1
    boneIndex[1]: 3
    boneIndex[2]: 0
    boneIndex[3]: 0
  - weight[0]: 0.998878
    weight[1]: 0.0011220219
    weight[2]: 0
    weight[3]: 0
    boneIndex[0]: 0
    boneIndex[1]: 3
    boneIndex[2]: 0
    boneIndex[3]: 0
  - weight[0]: 1
    weight[1]: 0
    weight[2]: 0
    weight[3]: 0
    boneIndex[0]: 0
    boneIndex[1]: 0
    boneIndex[2]: 0
    boneIndex[3]: 0
  m_VertexData:
    m_CurrentChannels: 27
    m_VertexCount: 8
    m_Channels:
    - stream: 0
      offset: 0
      format: 0
      dimension: 3
    - stream: 0
      offset: 12
      format: 0
      dimension: 3
    - stream: 0
      offset: 0
      format: 0
      dimension: 0
    - stream: 1
      offset: 0
      format: 0
      dimension: 2
    - stream: 1
      offset: 8
      format: 0
      dimension: 2
    - stream: 0
      offset: 0
      format: 0
      dimension: 0
    - stream: 0
      offset: 0
      format: 0
      dimension: 0
    - stream: 0
      offset: 0
      format: 0
      dimension: 0
    m_DataSize: 320
    _typelessdata: c51b1c428a55154324d4cd41000000000000803f000000008a3798418a55154324d4cd41000000000000803f000000008a3798418a551543fe954d42000000000000803f00000000c51b1c428a551543fe954d42000000000000803f00000000c51b6c428a55154324d4cd416f4caa3aeaff7f3f5b3e853ac51b6c428a551543fe954d424191ac3aeaff7f3fcb04873ae20d9e428a55154324d4cd41c32b2a3ba6ff7f3fcb24053be20d9e429f3a154390454f42c12b2a3ba6ff7f3fca24053bacaaaa3e0100803f1162013f841b6c3e000080330100803fd119013f10f36b3e0000803300000000f64fe43e62cfa63cacaaaa3e0000000014d1e43e7c609d3cacaa2a3f0100803f6dd3013fa0656c3eacaa2a3f00000000747ee53eecc18f3c0000803f0100803f982b023fbc756c3e0000803f000000004716e63e9285833c
  m_CompressedMesh:
    m_Vertices:
      m_NumItems: 0
      m_Range: 0
      m_Start: 0
      m_Data:
      m_BitSize: 0
    m_UV:
      m_NumItems: 0
      m_Range: 0
      m_Start: 0
      m_Data:
      m_BitSize: 0
    m_Normals:
      m_NumItems: 0
      m_Range: 0
      m_Start: 0
      m_Data:
      m_BitSize: 0
    m_Tangents:
      m_NumItems: 0
      m_Range: 0
      m_Start: 0
      m_Data:
      m_BitSize: 0
    m_Weights:
      m_NumItems: 0
      m_Data:
      m_BitSize: 0
    m_NormalSigns:
      m_NumItems: 0
      m_Data:
      m_BitSize: 0
    m_TangentSigns:
      m_NumItems: 0
      m_Data:
      m_BitSize: 0
    m_FloatColors:
      m_NumItems: 0
      m_Range: 0
      m_Start: 0
      m_Data:
      m_BitSize: 0
    m_BoneIndices:
      m_NumItems: 0
      m_Data:
      m_BitSize: 0
    m_Triangles:
      m_NumItems: 0
      m_Data:
      m_BitSize: 0
    m_UVInfo: 0
  m_LocalAABB:
    m_Center: {x: 49.027115, y: 149.28156, z: 38.77326}
    m_Extent: {x: 29.999998, y: 0.052574158, z: 13.044674}
  m_MeshUsageFlags: 1
  m_BakedConvexCollisionMesh:
  m_BakedTriangleCollisionMesh:
  m_MeshOptimized: 1
