%YAML 1.1
%TAG !u! tag:unity3d.com,2011:
--- !u!43 &4300000
Mesh:
  serializedVersion: 8
  m_ObjectHideFlags: 0
  m_PrefabParentObject: {fileID: 0}
  m_PrefabInternal: {fileID: 0}
  m_Name: wpn__sabers_01_01__trail_l
  m_SubMeshes:
  - serializedVersion: 2
    firstByte: 0
    indexCount: 36
    topology: 0
    firstVertex: 0
    vertexCount: 12
    localAABB:
      m_Center: {x: -50.173134, y: 149.7444, z: 50.30949}
      m_Extent: {x: 34.755074, y: 0.71569824, z: 34.50381}
  m_Shapes:
    vertices: []
    shapes: []
    channels: []
    fullWeights: []
  m_BindPose:
  - e00: 1
    e01: 6.557255E-16
    e02: 4.572167E-16
    e03: 79.09722
    e10: -6.557255E-16
    e11: 1
    e12: 6.2867294E-16
    e13: -149.33412
    e20: -4.440892E-16
    e21: -6.1062266E-16
    e22: 1.0295604
    e23: -52.345974
    e30: 0
    e31: 0
    e32: 0
    e33: 1
  - e00: 1
    e01: 6.557255E-16
    e02: 4.572167E-16
    e03: 59.0975
    e10: -6.557255E-16
    e11: 1
    e12: 6.2867294E-16
    e13: -149.33412
    e20: -4.440892E-16
    e21: -6.1062266E-16
    e22: 1.0295604
    e23: -52.345974
    e30: 0
    e31: 0
    e32: 0
    e33: 1
  - e00: 1
    e01: 6.557255E-16
    e02: 4.572167E-16
    e03: 39.09778
    e10: -6.557255E-16
    e11: 1
    e12: 6.2867294E-16
    e13: -149.33412
    e20: -4.440892E-16
    e21: -6.1062266E-16
    e22: 1.0295604
    e23: -52.345974
    e30: 0
    e31: 0
    e32: 0
    e33: 1
  - e00: 1
    e01: 6.557255E-16
    e02: 4.572167E-16
    e03: 19.098055
    e10: -6.557255E-16
    e11: 1
    e12: 6.2867294E-16
    e13: -149.33412
    e20: -4.440892E-16
    e21: -6.1062266E-16
    e22: 1.0295604
    e23: -52.345974
    e30: 0
    e31: 0
    e32: 0
    e33: 1
  m_BoneNameHashes:
  - 2426924185
  - 105178075
  - 316727190
  - 3721725396
  m_RootBoneNameHash: 2426924185
  m_MeshCompression: 0
  m_IsReadable: 1
  m_KeepVertices: 1
  m_KeepIndices: 1
  m_IndexBuffer: 00000100020000000200030004000100000004000500010006000500040006000700050001000800020001000900080005000900010005000a00090007000a00050007000b000a00
  m_Skin:
  - weight[0]: 1
    weight[1]: 0
    weight[2]: 0
    weight[3]: 0
    boneIndex[0]: 2
    boneIndex[1]: 0
    boneIndex[2]: 0
    boneIndex[3]: 0
  - weight[0]: 1
    weight[1]: 0
    weight[2]: 0
    weight[3]: 0
    boneIndex[0]: 2
    boneIndex[1]: 0
    boneIndex[2]: 0
    boneIndex[3]: 0
  - weight[0]: 1
    weight[1]: 0
    weight[2]: 0
    weight[3]: 0
    boneIndex[0]: 3
    boneIndex[1]: 0
    boneIndex[2]: 0
    boneIndex[3]: 0
  - weight[0]: 1
    weight[1]: 0
    weight[2]: 0
    weight[3]: 0
    boneIndex[0]: 3
    boneIndex[1]: 0
    boneIndex[2]: 0
    boneIndex[3]: 0
  - weight[0]: 1
    weight[1]: 0
    weight[2]: 0
    weight[3]: 0
    boneIndex[0]: 1
    boneIndex[1]: 0
    boneIndex[2]: 0
    boneIndex[3]: 0
  - weight[0]: 1
    weight[1]: 0
    weight[2]: 0
    weight[3]: 0
    boneIndex[0]: 1
    boneIndex[1]: 0
    boneIndex[2]: 0
    boneIndex[3]: 0
  - weight[0]: 1
    weight[1]: 0
    weight[2]: 0
    weight[3]: 0
    boneIndex[0]: 0
    boneIndex[1]: 0
    boneIndex[2]: 0
    boneIndex[3]: 0
  - weight[0]: 1
    weight[1]: 0
    weight[2]: 0
    weight[3]: 0
    boneIndex[0]: 0
    boneIndex[1]: 0
    boneIndex[2]: 0
    boneIndex[3]: 0
  - weight[0]: 1
    weight[1]: 0
    weight[2]: 0
    weight[3]: 0
    boneIndex[0]: 3
    boneIndex[1]: 0
    boneIndex[2]: 0
    boneIndex[3]: 0
  - weight[0]: 1
    weight[1]: 0
    weight[2]: 0
    weight[3]: 0
    boneIndex[0]: 2
    boneIndex[1]: 0
    boneIndex[2]: 0
    boneIndex[3]: 0
  - weight[0]: 1
    weight[1]: 0
    weight[2]: 0
    weight[3]: 0
    boneIndex[0]: 1
    boneIndex[1]: 0
    boneIndex[2]: 0
    boneIndex[3]: 0
  - weight[0]: 1
    weight[1]: 0
    weight[2]: 0
    weight[3]: 0
    boneIndex[0]: 0
    boneIndex[1]: 0
    boneIndex[2]: 0
    boneIndex[3]: 0
  m_VertexData:
    m_CurrentChannels: 27
    m_VertexCount: 12
    m_Channels:
    - stream: 0
      offset: 0
      format: 0
      dimension: 3
    - stream: 0
      offset: 12
      format: 0
      dimension: 3
    - stream: 0
      offset: 0
      format: 0
      dimension: 0
    - stream: 1
      offset: 0
      format: 0
      dimension: 2
    - stream: 1
      offset: 8
      format: 0
      dimension: 2
    - stream: 0
      offset: 0
      format: 0
      dimension: 0
    - stream: 0
      offset: 0
      format: 0
      dimension: 0
    - stream: 0
      offset: 0
      format: 0
      dimension: 0
    m_DataSize: 480
    _typelessdata: ff761ec2590715430ee47c410000000050fc7f3faae82dbc0f9035c2376315439972464200000000e9f17f3f1fe3a9bc1e20cbc137631543987246420000000081f17f3f174eacbcffed9cc1590715430ee47c410000000050fc7f3f2ae92dbcff766ec2590715430ee47c41ee4a29ba7cfc7f3ffa7429bc07c882c237631543987246422412cebab5f27f3fab7ba4bc7f3b9fc2590715430ee47c411235bfbaa8fc7f3ffada23bc3edba9c2e1531543b38e4542f19e2ebbd1f37f3fd26e9cbc5db076c1c975164369a0a942000000009ae17f3f337cf9bc17ac0dc2c975164369a0a942000000009ae17f3f0c7cf9bc17ac5dc2c975164369a0a9425880d2baf3e27f3f908af3bc0cd696c2de5a1643366aa94294ee80bb8be47f3f5feceabcacaaaa3efeff7f3f2b4a623ed070393facaaaa3e6935fc3e8c650b3fb915263f000080336935fc3e6b4a0b3f1b72253f00008033feff7f3f4f3b623e9ff5383facaa2a3ffeff7f3f5b7c623e3377393facaa2a3f6935fc3e2c650b3f0f3d263f0000803ffeff7f3f57d5623e84fd383f0000803f6935fc3efe4e0b3f33e3253f000080330000000060be763f3c092f3facaaaa3e000000003cf0763f17d42f3facaa2a3f0000000052e3763f6b1b303f0000803f0000000002a2763f73e02f3f
  m_CompressedMesh:
    m_Vertices:
      m_NumItems: 0
      m_Range: 0
      m_Start: 0
      m_Data:
      m_BitSize: 0
    m_UV:
      m_NumItems: 0
      m_Range: 0
      m_Start: 0
      m_Data:
      m_BitSize: 0
    m_Normals:
      m_NumItems: 0
      m_Range: 0
      m_Start: 0
      m_Data:
      m_BitSize: 0
    m_Tangents:
      m_NumItems: 0
      m_Range: 0
      m_Start: 0
      m_Data:
      m_BitSize: 0
    m_Weights:
      m_NumItems: 0
      m_Data:
      m_BitSize: 0
    m_NormalSigns:
      m_NumItems: 0
      m_Data:
      m_BitSize: 0
    m_TangentSigns:
      m_NumItems: 0
      m_Data:
      m_BitSize: 0
    m_FloatColors:
      m_NumItems: 0
      m_Range: 0
      m_Start: 0
      m_Data:
      m_BitSize: 0
    m_BoneIndices:
      m_NumItems: 0
      m_Data:
      m_BitSize: 0
    m_Triangles:
      m_NumItems: 0
      m_Data:
      m_BitSize: 0
    m_UVInfo: 0
  m_LocalAABB:
    m_Center: {x: -50.173134, y: 149.7444, z: 50.30949}
    m_Extent: {x: 34.755074, y: 0.71569824, z: 34.50381}
  m_MeshUsageFlags: 1
  m_BakedConvexCollisionMesh:
  m_BakedTriangleCollisionMesh:
  m_MeshOptimized: 1
