%YAML 1.1
%TAG !u! tag:unity3d.com,2011:
--- !u!43 &4300000
Mesh:
  serializedVersion: 8
  m_ObjectHideFlags: 0
  m_PrefabParentObject: {fileID: 0}
  m_PrefabInternal: {fileID: 0}
  m_Name: wpn__sabers_01_01__trail_r
  m_SubMeshes:
  - serializedVersion: 2
    firstByte: 0
    indexCount: 36
    topology: 0
    firstVertex: 0
    vertexCount: 12
    localAABB:
      m_Center: {x: 50.326263, y: 149.27122, z: 50.250824}
      m_Extent: {x: 34.5002, y: 0.06291199, z: 34.200012}
  m_Shapes:
    vertices: []
    shapes: []
    channels: []
    fullWeights: []
  m_BindPose:
  - e00: 1
    e01: 1.9498292E-15
    e02: -1.37165E-15
    e03: -79.09724
    e10: 1.9498292E-15
    e11: -1
    e12: -7.898768E-15
    e13: 149.33412
    e20: -1.3322676E-15
    e21: 7.6719814E-15
    e22: -1.0295604
    e23: 52.345974
    e30: 0
    e31: 0
    e32: 0
    e33: 1
  - e00: 1
    e01: 1.9498292E-15
    e02: -1.37165E-15
    e03: -59.09751
    e10: 1.9498292E-15
    e11: -1
    e12: -7.898768E-15
    e13: 149.33412
    e20: -1.3322676E-15
    e21: 7.6719814E-15
    e22: -1.0295604
    e23: 52.345974
    e30: 0
    e31: 0
    e32: 0
    e33: 1
  - e00: 1
    e01: 1.9498292E-15
    e02: -1.37165E-15
    e03: -39.09779
    e10: 1.9498292E-15
    e11: -1
    e12: -7.898768E-15
    e13: 149.33412
    e20: -1.3322676E-15
    e21: 7.6719814E-15
    e22: -1.0295604
    e23: 52.345974
    e30: 0
    e31: 0
    e32: 0
    e33: 1
  - e00: 1
    e01: 1.9498292E-15
    e02: -1.37165E-15
    e03: -19.098064
    e10: 1.9498292E-15
    e11: -1
    e12: -7.898768E-15
    e13: 149.33412
    e20: -1.3322676E-15
    e21: 7.6719814E-15
    e22: -1.0295604
    e23: 52.345974
    e30: 0
    e31: 0
    e32: 0
    e33: 1
  m_BoneNameHashes:
  - 2245943219
  - 1874314302
  - 1962673148
  - 2647831189
  m_RootBoneNameHash: 2245943219
  m_MeshCompression: 0
  m_IsReadable: 1
  m_KeepVertices: 1
  m_KeepIndices: 1
  m_IndexBuffer: 0000010002000000020003000400000003000400030005000600040005000600050007000800010000000800090001000a00080000000a00000004000b000a0004000b0004000600
  m_Skin:
  - weight[0]: 1
    weight[1]: 0
    weight[2]: 0
    weight[3]: 0
    boneIndex[0]: 2
    boneIndex[1]: 0
    boneIndex[2]: 0
    boneIndex[3]: 0
  - weight[0]: 1
    weight[1]: 0
    weight[2]: 0
    weight[3]: 0
    boneIndex[0]: 3
    boneIndex[1]: 0
    boneIndex[2]: 0
    boneIndex[3]: 0
  - weight[0]: 1
    weight[1]: 0
    weight[2]: 0
    weight[3]: 0
    boneIndex[0]: 3
    boneIndex[1]: 0
    boneIndex[2]: 0
    boneIndex[3]: 0
  - weight[0]: 1
    weight[1]: 0
    weight[2]: 0
    weight[3]: 0
    boneIndex[0]: 2
    boneIndex[1]: 0
    boneIndex[2]: 0
    boneIndex[3]: 0
  - weight[0]: 1
    weight[1]: 0
    weight[2]: 0
    weight[3]: 0
    boneIndex[0]: 1
    boneIndex[1]: 0
    boneIndex[2]: 0
    boneIndex[3]: 0
  - weight[0]: 1
    weight[1]: 0
    weight[2]: 0
    weight[3]: 0
    boneIndex[0]: 1
    boneIndex[1]: 0
    boneIndex[2]: 0
    boneIndex[3]: 0
  - weight[0]: 1
    weight[1]: 0
    weight[2]: 0
    weight[3]: 0
    boneIndex[0]: 0
    boneIndex[1]: 0
    boneIndex[2]: 0
    boneIndex[3]: 0
  - weight[0]: 1
    weight[1]: 0
    weight[2]: 0
    weight[3]: 0
    boneIndex[0]: 0
    boneIndex[1]: 0
    boneIndex[2]: 0
    boneIndex[3]: 0
  - weight[0]: 1
    weight[1]: 0
    weight[2]: 0
    weight[3]: 0
    boneIndex[0]: 2
    boneIndex[1]: 0
    boneIndex[2]: 0
    boneIndex[3]: 0
  - weight[0]: 1
    weight[1]: 0
    weight[2]: 0
    weight[3]: 0
    boneIndex[0]: 3
    boneIndex[1]: 0
    boneIndex[2]: 0
    boneIndex[3]: 0
  - weight[0]: 1
    weight[1]: 0
    weight[2]: 0
    weight[3]: 0
    boneIndex[0]: 1
    boneIndex[1]: 0
    boneIndex[2]: 0
    boneIndex[3]: 0
  - weight[0]: 1
    weight[1]: 0
    weight[2]: 0
    weight[3]: 0
    boneIndex[0]: 0
    boneIndex[1]: 0
    boneIndex[2]: 0
    boneIndex[3]: 0
  m_VertexData:
    m_CurrentChannels: 27
    m_VertexCount: 12
    m_Channels:
    - stream: 0
      offset: 0
      format: 0
      dimension: 3
    - stream: 0
      offset: 12
      format: 0
      dimension: 3
    - stream: 0
      offset: 0
      format: 0
      dimension: 0
    - stream: 1
      offset: 0
      format: 0
      dimension: 2
    - stream: 1
      offset: 8
      format: 0
      dimension: 2
    - stream: 0
      offset: 0
      format: 0
      dimension: 0
    - stream: 0
      offset: 0
      format: 0
      dimension: 0
    - stream: 0
      offset: 0
      format: 0
      dimension: 0
    m_DataSize: 480
    _typelessdata: 4b4e33428151154338024442000000000000803fb90c9f39969cc6418151154338024442000000000000803fab249d3990377d413f501543ba45a842000000000000803f90171239e44d0f423f501543ba45a842000000000000803fc03e123926a781428151154338024442b023c93ae4ff7f3fa151803ae44d5f423f501543ba45a84214f3da3ae2ff7f3f8e89663a26a7a942e243154341a54442be6f2d3bb4ff7f3fe0d1c03af2a6974254351543d4e6a8421bfe803b60ff7f3fd1cdf63ac51b1c428a5515431268804100000000feff7f3fb8a8fa398a3798418a5515431268804100000000feff7f3fd0befa39c51b6c428a5515431268804161ac1a3afaff7f3f45f53f3ae20d9e428a551543126880414ecdad3ae8ff7f3f2391893aacaaaa3ea7edfc3e232b1f3fa0472d3f00008033a7edfc3e8a2f1f3f0e832d3f00008033000000007bf8aa3e4c572c3facaaaa3e00000000afefaa3ee01b2c3facaa2a3fa7edfc3ebd261f3f300c2d3facaa2a3f00000000e3e6aa3e70e02b3f0000803fa7edfc3e58221f3fc1d02c3f0000803f0000000019deaa3e00a52b3facaaaa3efeff7f3fb1a86a3fa87a2e3f00008033feff7f3f19ad6a3f17b62e3facaa2a3ffeff7f3f4ba46a3f383f2e3f0000803ffeff7f3fe59f6a3fc9032e3f
  m_CompressedMesh:
    m_Vertices:
      m_NumItems: 0
      m_Range: 0
      m_Start: 0
      m_Data:
      m_BitSize: 0
    m_UV:
      m_NumItems: 0
      m_Range: 0
      m_Start: 0
      m_Data:
      m_BitSize: 0
    m_Normals:
      m_NumItems: 0
      m_Range: 0
      m_Start: 0
      m_Data:
      m_BitSize: 0
    m_Tangents:
      m_NumItems: 0
      m_Range: 0
      m_Start: 0
      m_Data:
      m_BitSize: 0
    m_Weights:
      m_NumItems: 0
      m_Data:
      m_BitSize: 0
    m_NormalSigns:
      m_NumItems: 0
      m_Data:
      m_BitSize: 0
    m_TangentSigns:
      m_NumItems: 0
      m_Data:
      m_BitSize: 0
    m_FloatColors:
      m_NumItems: 0
      m_Range: 0
      m_Start: 0
      m_Data:
      m_BitSize: 0
    m_BoneIndices:
      m_NumItems: 0
      m_Data:
      m_BitSize: 0
    m_Triangles:
      m_NumItems: 0
      m_Data:
      m_BitSize: 0
    m_UVInfo: 0
  m_LocalAABB:
    m_Center: {x: 50.326263, y: 149.27122, z: 50.250824}
    m_Extent: {x: 34.5002, y: 0.06291199, z: 34.200012}
  m_MeshUsageFlags: 1
  m_BakedConvexCollisionMesh:
  m_BakedTriangleCollisionMesh:
  m_MeshOptimized: 1
