%YAML 1.1
%TAG !u! tag:unity3d.com,2011:
--- !u!43 &4300000
Mesh:
  serializedVersion: 8
  m_ObjectHideFlags: 0
  m_PrefabParentObject: {fileID: 0}
  m_PrefabInternal: {fileID: 0}
  m_Name: wpn__spear_01_03__trail_l
  m_SubMeshes:
  - serializedVersion: 2
    firstByte: 0
    indexCount: 18
    topology: 0
    firstVertex: 0
    vertexCount: 8
    localAABB:
      m_Center: {x: -48.94284, y: 149.35706, z: 115.7667}
      m_Extent: {x: 30.084272, y: 7.6293945E-06, z: 22.739113}
  m_Shapes:
    vertices: []
    shapes: []
    channels: []
    fullWeights: []
  m_BindPose:
  - e00: 1
    e01: -0
    e02: -0
    e03: 79.027
    e10: -0
    e11: 1
    e12: 0
    e13: -149.33412
    e20: -0
    e21: 0
    e22: 1
    e23: -113.39096
    e30: 0
    e31: 0
    e32: 0
    e33: 1
  - e00: 1
    e01: -0
    e02: -0
    e03: 59.02728
    e10: -0
    e11: 1
    e12: 0
    e13: -149.33412
    e20: -0
    e21: 0
    e22: 1
    e23: -113.49622
    e30: 0
    e31: 0
    e32: 0
    e33: 1
  - e00: 1
    e01: -0
    e02: -0
    e03: 39.027554
    e10: -0
    e11: 1
    e12: 0
    e13: -149.33412
    e20: -0
    e21: 0
    e22: 1
    e23: -113.60149
    e30: 0
    e31: 0
    e32: 0
    e33: 1
  - e00: 1
    e01: -0
    e02: -0
    e03: 18.859282
    e10: -0
    e11: 1
    e12: 0
    e13: -149.33412
    e20: -0
    e21: 0
    e22: 1
    e23: -113.70675
    e30: 0
    e31: 0
    e32: 0
    e33: 1
  m_BoneNameHashes:
  - 1911123311
  - 685647534
  - 3811470999
  - 643905300
  m_RootBoneNameHash: 1911123311
  m_MeshCompression: 0
  m_IsReadable: 1
  m_KeepVertices: 1
  m_KeepIndices: 1
  m_IndexBuffer: 000001000200000002000300040001000000040005000100060005000400060007000500
  m_Skin:
  - weight[0]: 1
    weight[1]: 0
    weight[2]: 0
    weight[3]: 0
    boneIndex[0]: 2
    boneIndex[1]: 0
    boneIndex[2]: 0
    boneIndex[3]: 0
  - weight[0]: 1
    weight[1]: 0
    weight[2]: 0
    weight[3]: 0
    boneIndex[0]: 2
    boneIndex[1]: 0
    boneIndex[2]: 0
    boneIndex[3]: 0
  - weight[0]: 1
    weight[1]: 0
    weight[2]: 0
    weight[3]: 0
    boneIndex[0]: 3
    boneIndex[1]: 0
    boneIndex[2]: 0
    boneIndex[3]: 0
  - weight[0]: 1
    weight[1]: 0
    weight[2]: 0
    weight[3]: 0
    boneIndex[0]: 3
    boneIndex[1]: 0
    boneIndex[2]: 0
    boneIndex[3]: 0
  - weight[0]: 1
    weight[1]: 0
    weight[2]: 0
    weight[3]: 0
    boneIndex[0]: 1
    boneIndex[1]: 0
    boneIndex[2]: 0
    boneIndex[3]: 0
  - weight[0]: 1
    weight[1]: 0
    weight[2]: 0
    weight[3]: 0
    boneIndex[0]: 1
    boneIndex[1]: 0
    boneIndex[2]: 0
    boneIndex[3]: 0
  - weight[0]: 1
    weight[1]: 0
    weight[2]: 0
    weight[3]: 0
    boneIndex[0]: 0
    boneIndex[1]: 0
    boneIndex[2]: 0
    boneIndex[3]: 0
  - weight[0]: 1
    weight[1]: 0
    weight[2]: 0
    weight[3]: 0
    boneIndex[0]: 0
    boneIndex[1]: 0
    boneIndex[2]: 0
    boneIndex[3]: 0
  m_VertexData:
    m_CurrentChannels: 31
    m_VertexCount: 8
    m_Channels:
    - stream: 0
      offset: 0
      format: 0
      dimension: 3
    - stream: 0
      offset: 12
      format: 0
      dimension: 3
    - stream: 1
      offset: 0
      format: 2
      dimension: 4
    - stream: 1
      offset: 4
      format: 0
      dimension: 2
    - stream: 1
      offset: 12
      format: 0
      dimension: 2
    - stream: 0
      offset: 0
      format: 0
      dimension: 0
    - stream: 0
      offset: 0
      format: 0
      dimension: 0
    - stream: 0
      offset: 0
      format: 0
      dimension: 0
    m_DataSize: 352
    _typelessdata: c51b1cc2675b1543200eba42000000000000803f00000000c31b1cc2685b15438a660a43000000000000803f000000005ade96c1685b15437d810a43000000000000803f000000005ade96c1675b1543200eba42000000000000803f00000000c51b6cc2675b1543200eba42000000000000803f00000000231b6cc2685b1543974b0a43000000000000803f00000000e20d9ec2675b1543200eba42000000000000803f00000000dc0d9ec2675b1543a6300a43000000000000803f0000000000000055769fab3efcff7f3fea94003f11d38e3e00000055729fab3e000080b48bcab63e1b168f3e0000000000008033000080b441ebb63e3cf78f3e0000000000008033fcff7f3f44a5003f34b48f3e000000aadee72a3ffcff7f3f8e84003f485a8e3e000000aa32e72a3f00000037d5a9b63e529d8e3e000000ff0100803ffcff7f3f3474003f1c3c8d3e000000fff4ff7f3f0084183c1f89b63e227f8d3e
  m_CompressedMesh:
    m_Vertices:
      m_NumItems: 0
      m_Range: 0
      m_Start: 0
      m_Data:
      m_BitSize: 0
    m_UV:
      m_NumItems: 0
      m_Range: 0
      m_Start: 0
      m_Data:
      m_BitSize: 0
    m_Normals:
      m_NumItems: 0
      m_Range: 0
      m_Start: 0
      m_Data:
      m_BitSize: 0
    m_Tangents:
      m_NumItems: 0
      m_Range: 0
      m_Start: 0
      m_Data:
      m_BitSize: 0
    m_Weights:
      m_NumItems: 0
      m_Data:
      m_BitSize: 0
    m_NormalSigns:
      m_NumItems: 0
      m_Data:
      m_BitSize: 0
    m_TangentSigns:
      m_NumItems: 0
      m_Data:
      m_BitSize: 0
    m_FloatColors:
      m_NumItems: 0
      m_Range: 0
      m_Start: 0
      m_Data:
      m_BitSize: 0
    m_BoneIndices:
      m_NumItems: 0
      m_Data:
      m_BitSize: 0
    m_Triangles:
      m_NumItems: 0
      m_Data:
      m_BitSize: 0
    m_UVInfo: 0
  m_LocalAABB:
    m_Center: {x: -48.94284, y: 149.35706, z: 115.7667}
    m_Extent: {x: 30.084272, y: 7.6293945E-06, z: 22.739113}
  m_MeshUsageFlags: 1
  m_BakedConvexCollisionMesh:
  m_BakedTriangleCollisionMesh:
  m_MeshOptimized: 1
