%YAML 1.1
%TAG !u! tag:unity3d.com,2011:
--- !u!43 &4300000
Mesh:
  serializedVersion: 8
  m_ObjectHideFlags: 0
  m_PrefabParentObject: {fileID: 0}
  m_PrefabInternal: {fileID: 0}
  m_Name: wpn__sabers_01_02__trail_r
  m_SubMeshes:
  - serializedVersion: 2
    firstByte: 0
    indexCount: 36
    topology: 0
    firstVertex: 0
    vertexCount: 12
    localAABB:
      m_Center: {x: 48.787598, y: 149.37216, z: 48.8016}
      m_Extent: {x: 32.371017, y: 0.06537628, z: 34.50571}
  m_Shapes:
    vertices: []
    shapes: []
    channels: []
    fullWeights: []
  m_BindPose:
  - e00: 1
    e01: -0
    e02: -0
    e03: -19.098064
    e10: 0
    e11: -1
    e12: -1.2608473E-16
    e13: 149.33412
    e20: -0
    e21: 1.2246469E-16
    e22: -1.02956
    e23: 52.345974
    e30: 0
    e31: 0
    e32: 0
    e33: 1
  - e00: 1
    e01: -0
    e02: -0
    e03: -39.09779
    e10: 0
    e11: -1
    e12: -1.2608473E-16
    e13: 149.33412
    e20: -0
    e21: 1.2246469E-16
    e22: -1.02956
    e23: 52.345974
    e30: 0
    e31: 0
    e32: 0
    e33: 1
  - e00: 1
    e01: -0
    e02: -0
    e03: -59.09751
    e10: 0
    e11: -1
    e12: -1.2608473E-16
    e13: 149.33412
    e20: -0
    e21: 1.2246469E-16
    e22: -1.02956
    e23: 52.345974
    e30: 0
    e31: 0
    e32: 0
    e33: 1
  - e00: 1
    e01: -0
    e02: -0
    e03: -79.09724
    e10: 0
    e11: -1
    e12: -1.2608473E-16
    e13: 149.33412
    e20: -0
    e21: 1.2246469E-16
    e22: -1.02956
    e23: 52.345974
    e30: 0
    e31: 0
    e32: 0
    e33: 1
  m_BoneNameHashes:
  - 2647831189
  - 1962673148
  - 1874314302
  - 2245943219
  m_RootBoneNameHash: 2245943219
  m_MeshCompression: 0
  m_IsReadable: 1
  m_KeepVertices: 1
  m_KeepIndices: 1
  m_IndexBuffer: 0000010002000000020003000400000003000400030005000600040005000600050007000800010000000800090001000a00080000000a00000004000b000a0004000b0004000600
  m_Skin:
  - weight[0]: 1
    weight[1]: 0
    weight[2]: 0
    weight[3]: 0
    boneIndex[0]: 1
    boneIndex[1]: 0
    boneIndex[2]: 0
    boneIndex[3]: 0
  - weight[0]: 1
    weight[1]: 0
    weight[2]: 0
    weight[3]: 0
    boneIndex[0]: 0
    boneIndex[1]: 0
    boneIndex[2]: 0
    boneIndex[3]: 0
  - weight[0]: 1
    weight[1]: 0
    weight[2]: 0
    weight[3]: 0
    boneIndex[0]: 0
    boneIndex[1]: 0
    boneIndex[2]: 0
    boneIndex[3]: 0
  - weight[0]: 1
    weight[1]: 0
    weight[2]: 0
    weight[3]: 0
    boneIndex[0]: 1
    boneIndex[1]: 0
    boneIndex[2]: 0
    boneIndex[3]: 0
  - weight[0]: 1
    weight[1]: 0
    weight[2]: 0
    weight[3]: 0
    boneIndex[0]: 2
    boneIndex[1]: 0
    boneIndex[2]: 0
    boneIndex[3]: 0
  - weight[0]: 1
    weight[1]: 0
    weight[2]: 0
    weight[3]: 0
    boneIndex[0]: 2
    boneIndex[1]: 0
    boneIndex[2]: 0
    boneIndex[3]: 0
  - weight[0]: 1
    weight[1]: 0
    weight[2]: 0
    weight[3]: 0
    boneIndex[0]: 3
    boneIndex[1]: 0
    boneIndex[2]: 0
    boneIndex[3]: 0
  - weight[0]: 1
    weight[1]: 0
    weight[2]: 0
    weight[3]: 0
    boneIndex[0]: 3
    boneIndex[1]: 0
    boneIndex[2]: 0
    boneIndex[3]: 0
  - weight[0]: 1
    weight[1]: 0
    weight[2]: 0
    weight[3]: 0
    boneIndex[0]: 1
    boneIndex[1]: 0
    boneIndex[2]: 0
    boneIndex[3]: 0
  - weight[0]: 1
    weight[1]: 0
    weight[2]: 0
    weight[3]: 0
    boneIndex[0]: 0
    boneIndex[1]: 0
    boneIndex[2]: 0
    boneIndex[3]: 0
  - weight[0]: 1
    weight[1]: 0
    weight[2]: 0
    weight[3]: 0
    boneIndex[0]: 2
    boneIndex[1]: 0
    boneIndex[2]: 0
    boneIndex[3]: 0
  - weight[0]: 1
    weight[1]: 0
    weight[2]: 0
    weight[3]: 0
    boneIndex[0]: 3
    boneIndex[1]: 0
    boneIndex[2]: 0
    boneIndex[3]: 0
  m_VertexData:
    m_CurrentChannels: 27
    m_VertexCount: 12
    m_Channels:
    - stream: 0
      offset: 0
      format: 0
      dimension: 3
    - stream: 0
      offset: 12
      format: 0
      dimension: 3
    - stream: 0
      offset: 0
      format: 0
      dimension: 0
    - stream: 1
      offset: 0
      format: 0
      dimension: 2
    - stream: 1
      offset: 8
      format: 0
      dimension: 2
    - stream: 0
      offset: 0
      format: 0
      dimension: 0
    - stream: 0
      offset: 0
      format: 0
      dimension: 0
    - stream: 0
      offset: 0
      format: 0
      dimension: 0
    m_DataSize: 480
    _typelessdata: 6ba22442ee6c1543eb154442c60d4e3ffcde003fabdfa03ed644a941ee6c1543eb154442c10d4e3ffdde003fc3dfa03e28558341746915433efca542330d4e3fddde003ffde2a03e94aa1142746915433efca542330d4e3fdcde003ffee2a03e6ca27442ee6c1543eb15444253304e3f038d003fd534a13e94aa6142746915433efca5421b3b4e3f5476003ffd45a13e3651a2424f5f1543f4b84442f34c4e3f6848003fe77ca13e4ad59842894e1543589da64233714e3fe1f4ff3efcbaa13e011c1c4202701543f8bb6441530e4e3f1edf003f6cdca03e0238984102701543f8bb6441520e4e3f1edf003f6edca03e011c6c4202701543f8bb6441341c4e3f74b9003fe90da13e000e9e4202701543f8bb6441062b4e3f1d91003fe342a13eacaaaa3ea7edfc3ed1d79c3e20d9473f00008033a7edfc3e9fe09c3e8e14483f00008033000000007081403d382f5a3facaaaa3e00000000103b403dccf3593facaa2a3fa7edfc3e05cf9c3eb09d473facaa2a3f00000000b0f43f3d5cb8593f0000803fa7edfc3e3bc69c3e4162473f0000803f0000000060ae3f3dec7c593facaaaa3efeff7f3f6f1a2b3f117c473f00008033feff7f3fd71e2b3f80b7473facaa2a3ffeff7f3f09162b3fa140473f0000803ffeff7f3fa3112b3f3205473f
  m_CompressedMesh:
    m_Vertices:
      m_NumItems: 0
      m_Range: 0
      m_Start: 0
      m_Data:
      m_BitSize: 0
    m_UV:
      m_NumItems: 0
      m_Range: 0
      m_Start: 0
      m_Data:
      m_BitSize: 0
    m_Normals:
      m_NumItems: 0
      m_Range: 0
      m_Start: 0
      m_Data:
      m_BitSize: 0
    m_Tangents:
      m_NumItems: 0
      m_Range: 0
      m_Start: 0
      m_Data:
      m_BitSize: 0
    m_Weights:
      m_NumItems: 0
      m_Data:
      m_BitSize: 0
    m_NormalSigns:
      m_NumItems: 0
      m_Data:
      m_BitSize: 0
    m_TangentSigns:
      m_NumItems: 0
      m_Data:
      m_BitSize: 0
    m_FloatColors:
      m_NumItems: 0
      m_Range: 0
      m_Start: 0
      m_Data:
      m_BitSize: 0
    m_BoneIndices:
      m_NumItems: 0
      m_Data:
      m_BitSize: 0
    m_Triangles:
      m_NumItems: 0
      m_Data:
      m_BitSize: 0
    m_UVInfo: 0
  m_LocalAABB:
    m_Center: {x: 48.787598, y: 149.37216, z: 48.8016}
    m_Extent: {x: 32.371017, y: 0.06537628, z: 34.50571}
  m_MeshUsageFlags: 1
  m_BakedConvexCollisionMesh:
  m_BakedTriangleCollisionMesh:
  m_MeshOptimized: 1
