%YAML 1.1
%TAG !u! tag:unity3d.com,2011:
--- !u!43 &4300000
Mesh:
  serializedVersion: 8
  m_ObjectHideFlags: 0
  m_PrefabParentObject: {fileID: 0}
  m_PrefabInternal: {fileID: 0}
  m_Name: wpn__sabers_01_03__trail_l
  m_SubMeshes:
  - serializedVersion: 2
    firstByte: 0
    indexCount: 36
    topology: 0
    firstVertex: 0
    vertexCount: 12
    localAABB:
      m_Center: {x: -44.608772, y: 149.34085, z: 49.58605}
      m_Extent: {x: 35.007668, y: 0.08089447, z: 33.78786}
  m_Shapes:
    vertices: []
    shapes: []
    channels: []
    fullWeights: []
  m_BindPose:
  - e00: 1
    e01: -0
    e02: -0
    e03: 19.098055
    e10: -0
    e11: 1
    e12: 0
    e13: -149.33412
    e20: -0
    e21: 0
    e22: 1.02956
    e23: -52.345974
    e30: 0
    e31: 0
    e32: 0
    e33: 1
  - e00: 1
    e01: -0
    e02: -0
    e03: 39.09778
    e10: -0
    e11: 1
    e12: 0
    e13: -149.33412
    e20: -0
    e21: 0
    e22: 1.02956
    e23: -52.345974
    e30: 0
    e31: 0
    e32: 0
    e33: 1
  - e00: 1
    e01: -0
    e02: -0
    e03: 59.0975
    e10: -0
    e11: 1
    e12: 0
    e13: -149.33412
    e20: -0
    e21: 0
    e22: 1.02956
    e23: -52.345974
    e30: 0
    e31: 0
    e32: 0
    e33: 1
  - e00: 1
    e01: -0
    e02: -0
    e03: 79.09722
    e10: -0
    e11: 1
    e12: 0
    e13: -149.33412
    e20: -0
    e21: 0
    e22: 1.02956
    e23: -52.345974
    e30: 0
    e31: 0
    e32: 0
    e33: 1
  m_BoneNameHashes:
  - 3721725396
  - 316727190
  - 105178075
  - 2426924185
  m_RootBoneNameHash: 2426924185
  m_MeshCompression: 0
  m_IsReadable: 1
  m_KeepVertices: 1
  m_KeepIndices: 1
  m_IndexBuffer: 00000100020000000200030004000100000004000500010006000500040006000700050001000800020001000900080005000900010005000a00090007000a00050007000b000a00
  m_Skin:
  - weight[0]: 1
    weight[1]: 0
    weight[2]: 0
    weight[3]: 0
    boneIndex[0]: 1
    boneIndex[1]: 0
    boneIndex[2]: 0
    boneIndex[3]: 0
  - weight[0]: 1
    weight[1]: 0
    weight[2]: 0
    weight[3]: 0
    boneIndex[0]: 1
    boneIndex[1]: 0
    boneIndex[2]: 0
    boneIndex[3]: 0
  - weight[0]: 1
    weight[1]: 0
    weight[2]: 0
    weight[3]: 0
    boneIndex[0]: 0
    boneIndex[1]: 0
    boneIndex[2]: 0
    boneIndex[3]: 0
  - weight[0]: 1
    weight[1]: 0
    weight[2]: 0
    weight[3]: 0
    boneIndex[0]: 0
    boneIndex[1]: 0
    boneIndex[2]: 0
    boneIndex[3]: 0
  - weight[0]: 1
    weight[1]: 0
    weight[2]: 0
    weight[3]: 0
    boneIndex[0]: 2
    boneIndex[1]: 0
    boneIndex[2]: 0
    boneIndex[3]: 0
  - weight[0]: 1
    weight[1]: 0
    weight[2]: 0
    weight[3]: 0
    boneIndex[0]: 2
    boneIndex[1]: 0
    boneIndex[2]: 0
    boneIndex[3]: 0
  - weight[0]: 1
    weight[1]: 0
    weight[2]: 0
    weight[3]: 0
    boneIndex[0]: 3
    boneIndex[1]: 0
    boneIndex[2]: 0
    boneIndex[3]: 0
  - weight[0]: 1
    weight[1]: 0
    weight[2]: 0
    weight[3]: 0
    boneIndex[0]: 3
    boneIndex[1]: 0
    boneIndex[2]: 0
    boneIndex[3]: 0
  - weight[0]: 1
    weight[1]: 0
    weight[2]: 0
    weight[3]: 0
    boneIndex[0]: 0
    boneIndex[1]: 0
    boneIndex[2]: 0
    boneIndex[3]: 0
  - weight[0]: 1
    weight[1]: 0
    weight[2]: 0
    weight[3]: 0
    boneIndex[0]: 1
    boneIndex[1]: 0
    boneIndex[2]: 0
    boneIndex[3]: 0
  - weight[0]: 1
    weight[1]: 0
    weight[2]: 0
    weight[3]: 0
    boneIndex[0]: 2
    boneIndex[1]: 0
    boneIndex[2]: 0
    boneIndex[3]: 0
  - weight[0]: 1
    weight[1]: 0
    weight[2]: 0
    weight[3]: 0
    boneIndex[0]: 3
    boneIndex[1]: 0
    boneIndex[2]: 0
    boneIndex[3]: 0
  m_VertexData:
    m_CurrentChannels: 27
    m_VertexCount: 12
    m_Channels:
    - stream: 0
      offset: 0
      format: 0
      dimension: 3
    - stream: 0
      offset: 12
      format: 0
      dimension: 3
    - stream: 0
      offset: 0
      format: 0
      dimension: 0
    - stream: 1
      offset: 0
      format: 0
      dimension: 2
    - stream: 1
      offset: 8
      format: 0
      dimension: 2
    - stream: 0
      offset: 0
      format: 0
      dimension: 0
    - stream: 0
      offset: 0
      format: 0
      dimension: 0
    - stream: 0
      offset: 0
      format: 0
      dimension: 0
    m_DataSize: 480
    _typelessdata: 3e771ec2ca49154360c57c41c45a18bf2483163f12400c3f536a1cc2f86b1543dd508d42e62318bf6a80163f817e0c3fa6d498c1f86b1543dc508d42081218bf847f163fcf920c3f7bee9cc1ca49154360c57c41c65a18bf2683163f12400c3f3e776ec2ca49154360c57c41f96418bf795a163f99600c3f526a6cc2f86b1543dc508d42f12018bf6141163f1dc50c3f9e3b9fc2ca49154360c57c41f66e18bf8932163f7e800c3f60489dc2a25c1543eade8c42324018bf6b1e163fa0c80c3f1c9e19c1785d154371bfa642803617bff073163f298b0d3f0ecfecc1785d154371bfa642813617bfef73163f298b0d3f876746c2785d154371bfa642c31e17bf482f163f49ed0d3fc4338bc28d4215433e89a6425ce416bf9087153fbfdb0e3facaaaa3efeff7f3f3f376a3faccd2a3eacaaaa3e6935fc3ef902873ea43a243e000080336935fc3eb7cc863e2cac213e00008033feff7f3f88336a3fe8e0283eacaa2a3ffeff7f3fcb436a3f38e72a3eacaa2a3f6935fc3e3902873efcd7243e0000803ffeff7f3f0a5a6a3f7c00293e0000803f6935fc3eddd5863e8c70233e0000803300000000f014773d902fb33dacaaaa3e00000000b0327a3d6886b93dacaa2a3f000000001064793d08c1bb3d0000803f00000000104f753d48e9b93d
  m_CompressedMesh:
    m_Vertices:
      m_NumItems: 0
      m_Range: 0
      m_Start: 0
      m_Data:
      m_BitSize: 0
    m_UV:
      m_NumItems: 0
      m_Range: 0
      m_Start: 0
      m_Data:
      m_BitSize: 0
    m_Normals:
      m_NumItems: 0
      m_Range: 0
      m_Start: 0
      m_Data:
      m_BitSize: 0
    m_Tangents:
      m_NumItems: 0
      m_Range: 0
      m_Start: 0
      m_Data:
      m_BitSize: 0
    m_Weights:
      m_NumItems: 0
      m_Data:
      m_BitSize: 0
    m_NormalSigns:
      m_NumItems: 0
      m_Data:
      m_BitSize: 0
    m_TangentSigns:
      m_NumItems: 0
      m_Data:
      m_BitSize: 0
    m_FloatColors:
      m_NumItems: 0
      m_Range: 0
      m_Start: 0
      m_Data:
      m_BitSize: 0
    m_BoneIndices:
      m_NumItems: 0
      m_Data:
      m_BitSize: 0
    m_Triangles:
      m_NumItems: 0
      m_Data:
      m_BitSize: 0
    m_UVInfo: 0
  m_LocalAABB:
    m_Center: {x: -44.608772, y: 149.34085, z: 49.58605}
    m_Extent: {x: 35.007668, y: 0.08089447, z: 33.78786}
  m_MeshUsageFlags: 1
  m_BakedConvexCollisionMesh:
  m_BakedTriangleCollisionMesh:
  m_MeshOptimized: 1
