%YAML 1.1
%TAG !u! tag:unity3d.com,2011:
--- !u!43 &4300000
Mesh:
  serializedVersion: 8
  m_ObjectHideFlags: 0
  m_PrefabParentObject: {fileID: 0}
  m_PrefabInternal: {fileID: 0}
  m_Name: wpn__sabers_01_03__trail_r
  m_SubMeshes:
  - serializedVersion: 2
    firstByte: 0
    indexCount: 36
    topology: 0
    firstVertex: 0
    vertexCount: 12
    localAABB:
      m_Center: {x: 44.949524, y: 149.06775, z: 49.62319}
      m_Extent: {x: 34.07759, y: 0.06291199, z: 33.572372}
  m_Shapes:
    vertices: []
    shapes: []
    channels: []
    fullWeights: []
  m_BindPose:
  - e00: 1
    e01: -0
    e02: -0
    e03: -19.098064
    e10: 0
    e11: -1
    e12: -1.2608473E-16
    e13: 149.33412
    e20: -0
    e21: 1.2246469E-16
    e22: -1.02956
    e23: 52.345974
    e30: 0
    e31: 0
    e32: 0
    e33: 1
  - e00: 1
    e01: -0
    e02: -0
    e03: -39.09779
    e10: 0
    e11: -1
    e12: -1.2608473E-16
    e13: 149.33412
    e20: -0
    e21: 1.2246469E-16
    e22: -1.02956
    e23: 52.345974
    e30: 0
    e31: 0
    e32: 0
    e33: 1
  - e00: 1
    e01: -0
    e02: -0
    e03: -59.09751
    e10: 0
    e11: -1
    e12: -1.2608473E-16
    e13: 149.33412
    e20: -0
    e21: 1.2246469E-16
    e22: -1.02956
    e23: 52.345974
    e30: 0
    e31: 0
    e32: 0
    e33: 1
  - e00: 1
    e01: -0
    e02: -0
    e03: -79.09724
    e10: 0
    e11: -1
    e12: -1.2608473E-16
    e13: 149.33412
    e20: -0
    e21: 1.2246469E-16
    e22: -1.02956
    e23: 52.345974
    e30: 0
    e31: 0
    e32: 0
    e33: 1
  m_BoneNameHashes:
  - 2647831189
  - 1962673148
  - 1874314302
  - 2245943219
  m_RootBoneNameHash: 2245943219
  m_MeshCompression: 0
  m_IsReadable: 1
  m_KeepVertices: 1
  m_KeepIndices: 1
  m_IndexBuffer: 0000010002000000020003000400000003000400030005000600040005000600050007000800010000000800090001000a00080000000a00000004000b000a0004000b0004000600
  m_Skin:
  - weight[0]: 1
    weight[1]: 0
    weight[2]: 0
    weight[3]: 0
    boneIndex[0]: 1
    boneIndex[1]: 0
    boneIndex[2]: 0
    boneIndex[3]: 0
  - weight[0]: 1
    weight[1]: 0
    weight[2]: 0
    weight[3]: 0
    boneIndex[0]: 0
    boneIndex[1]: 0
    boneIndex[2]: 0
    boneIndex[3]: 0
  - weight[0]: 1
    weight[1]: 0
    weight[2]: 0
    weight[3]: 0
    boneIndex[0]: 0
    boneIndex[1]: 0
    boneIndex[2]: 0
    boneIndex[3]: 0
  - weight[0]: 1
    weight[1]: 0
    weight[2]: 0
    weight[3]: 0
    boneIndex[0]: 1
    boneIndex[1]: 0
    boneIndex[2]: 0
    boneIndex[3]: 0
  - weight[0]: 1
    weight[1]: 0
    weight[2]: 0
    weight[3]: 0
    boneIndex[0]: 2
    boneIndex[1]: 0
    boneIndex[2]: 0
    boneIndex[3]: 0
  - weight[0]: 1
    weight[1]: 0
    weight[2]: 0
    weight[3]: 0
    boneIndex[0]: 2
    boneIndex[1]: 0
    boneIndex[2]: 0
    boneIndex[3]: 0
  - weight[0]: 1
    weight[1]: 0
    weight[2]: 0
    weight[3]: 0
    boneIndex[0]: 3
    boneIndex[1]: 0
    boneIndex[2]: 0
    boneIndex[3]: 0
  - weight[0]: 1
    weight[1]: 0
    weight[2]: 0
    weight[3]: 0
    boneIndex[0]: 3
    boneIndex[1]: 0
    boneIndex[2]: 0
    boneIndex[3]: 0
  - weight[0]: 1
    weight[1]: 0
    weight[2]: 0
    weight[3]: 0
    boneIndex[0]: 1
    boneIndex[1]: 0
    boneIndex[2]: 0
    boneIndex[3]: 0
  - weight[0]: 1
    weight[1]: 0
    weight[2]: 0
    weight[3]: 0
    boneIndex[0]: 0
    boneIndex[1]: 0
    boneIndex[2]: 0
    boneIndex[3]: 0
  - weight[0]: 1
    weight[1]: 0
    weight[2]: 0
    weight[3]: 0
    boneIndex[0]: 2
    boneIndex[1]: 0
    boneIndex[2]: 0
    boneIndex[3]: 0
  - weight[0]: 1
    weight[1]: 0
    weight[2]: 0
    weight[3]: 0
    boneIndex[0]: 3
    boneIndex[1]: 0
    boneIndex[2]: 0
    boneIndex[3]: 0
  m_VertexData:
    m_CurrentChannels: 27
    m_VertexCount: 12
    m_Channels:
    - stream: 0
      offset: 0
      format: 0
      dimension: 3
    - stream: 0
      offset: 12
      format: 0
      dimension: 3
    - stream: 0
      offset: 0
      format: 0
      dimension: 0
    - stream: 1
      offset: 0
      format: 0
      dimension: 2
    - stream: 1
      offset: 8
      format: 0
      dimension: 2
    - stream: 0
      offset: 0
      format: 0
      dimension: 0
    - stream: 0
      offset: 0
      format: 0
      dimension: 0
    - stream: 0
      offset: 0
      format: 0
      dimension: 0
    m_DataSize: 480
    _typelessdata: cb591942ce1a154330a58d42190f4e3f4bdf003fddd7a03e95b39241ce1a154330a58d4215104e3f85df003f1dd2a03e70f32d41281c154307c3a542c41e4e3fe5e2003ff67ba03eb9f9f641281c154307c3a542c01e4e3fe7e2003ffa7ba03ecb596942ce1a154330a58d4231204e3f2ba2003fdd43a13edd7c4b42281c154307c3a5421c294e3f2a93003f1e46a13ee5ac9c422f0d1543b5f68d426d2e4e3ffb7c003f9f71a13e6ebe8d423d0115432164a642a43d4e3f5ce0ff3e8de1a23ec51b1c427321154312688041a70b4e3f80de003f15eca03e8a3798417321154312688041a60b4e3f81de003f1ceca03ec51b6c427321154312688041221c4e3f73b7003fae14a13ee20d9e4273211543126880412b2c4e3f5891003f473ca13eacaaaa3ea7edfc3efca9553eecd5233e00008033a7edfc3e98bb553ea4c3243e0000803300000000b02b383d68f48c3dacaaaa3e0000000050e5373d08198b3dacaa2a3fa7edfc3e6498553e2ce8223eacaa2a3f00000000f09e373d883d893d0000803fa7edfc3ed086553e70fa213e0000803f000000009058373d0862873dacaaaa3efeff7f3f3e93683f10a2283e00008033feff7f3fa697683fcc8f293eacaa2a3ffeff7f3fd88e683f50b4273e0000803ffeff7f3f728a683f94c6263e
  m_CompressedMesh:
    m_Vertices:
      m_NumItems: 0
      m_Range: 0
      m_Start: 0
      m_Data:
      m_BitSize: 0
    m_UV:
      m_NumItems: 0
      m_Range: 0
      m_Start: 0
      m_Data:
      m_BitSize: 0
    m_Normals:
      m_NumItems: 0
      m_Range: 0
      m_Start: 0
      m_Data:
      m_BitSize: 0
    m_Tangents:
      m_NumItems: 0
      m_Range: 0
      m_Start: 0
      m_Data:
      m_BitSize: 0
    m_Weights:
      m_NumItems: 0
      m_Data:
      m_BitSize: 0
    m_NormalSigns:
      m_NumItems: 0
      m_Data:
      m_BitSize: 0
    m_TangentSigns:
      m_NumItems: 0
      m_Data:
      m_BitSize: 0
    m_FloatColors:
      m_NumItems: 0
      m_Range: 0
      m_Start: 0
      m_Data:
      m_BitSize: 0
    m_BoneIndices:
      m_NumItems: 0
      m_Data:
      m_BitSize: 0
    m_Triangles:
      m_NumItems: 0
      m_Data:
      m_BitSize: 0
    m_UVInfo: 0
  m_LocalAABB:
    m_Center: {x: 44.949524, y: 149.06775, z: 49.62319}
    m_Extent: {x: 34.07759, y: 0.06291199, z: 33.572372}
  m_MeshUsageFlags: 1
  m_BakedConvexCollisionMesh:
  m_BakedTriangleCollisionMesh:
  m_MeshOptimized: 1
