%YAML 1.1
%TAG !u! tag:unity3d.com,2011:
--- !u!43 &4300000
Mesh:
  serializedVersion: 8
  m_ObjectHideFlags: 0
  m_PrefabParentObject: {fileID: 0}
  m_PrefabInternal: {fileID: 0}
  m_Name: wpn__twohanded_sword_01_01__trail_r
  m_SubMeshes:
  - serializedVersion: 2
    firstByte: 0
    indexCount: 18
    topology: 0
    firstVertex: 0
    vertexCount: 8
    localAABB:
      m_Center: {x: 49.027115, y: 149.28156, z: 78.85477}
      m_Extent: {x: 29.999998, y: 0.052574158, z: 61.18247}
  m_Shapes:
    vertices: []
    shapes: []
    channels: []
    fullWeights: []
  m_BindPose:
  - e00: 1
    e01: 1.9498292E-15
    e02: -1.3322676E-15
    e03: -39.02725
    e10: 1.9498292E-15
    e11: -1
    e12: -7.6719814E-15
    e13: 149.33412
    e20: -1.3322676E-15
    e21: 7.6719814E-15
    e22: -1
    e23: 82.852806
    e30: 0
    e31: 0
    e32: 0
    e33: 1
  - e00: 1
    e01: 1.9498292E-15
    e02: -1.3322676E-15
    e03: -59.026974
    e10: 1.9498292E-15
    e11: -1
    e12: -7.6719814E-15
    e13: 149.33412
    e20: -1.3322676E-15
    e21: 7.6719814E-15
    e22: -1
    e23: 82.747536
    e30: 0
    e31: 0
    e32: 0
    e33: 1
  - e00: 1
    e01: 1.9498292E-15
    e02: -1.3322676E-15
    e03: -79.026695
    e10: 1.9498292E-15
    e11: -1
    e12: -7.6719814E-15
    e13: 149.33412
    e20: -1.3322676E-15
    e21: 7.6719814E-15
    e22: -1
    e23: 82.64227
    e30: 0
    e31: 0
    e32: 0
    e33: 1
  - e00: 1
    e01: 1.9498292E-15
    e02: -1.3322676E-15
    e03: -19.027527
    e10: 1.9498292E-15
    e11: -1
    e12: -7.6719814E-15
    e13: 149.33412
    e20: -1.3322676E-15
    e21: 7.6719814E-15
    e22: -1
    e23: 82.95807
    e30: 0
    e31: 0
    e32: 0
    e33: 1
  m_BoneNameHashes:
  - 2043129294
  - 3830359406
  - 1154646043
  - 656994221
  m_RootBoneNameHash: 1154646043
  m_MeshCompression: 0
  m_IsReadable: 1
  m_KeepVertices: 1
  m_KeepIndices: 1
  m_IndexBuffer: 000001000200000002000300040000000300040003000500060004000500060005000700
  m_Skin:
  - weight[0]: 1
    weight[1]: 0
    weight[2]: 0
    weight[3]: 0
    boneIndex[0]: 0
    boneIndex[1]: 0
    boneIndex[2]: 0
    boneIndex[3]: 0
  - weight[0]: 1
    weight[1]: 0
    weight[2]: 0
    weight[3]: 0
    boneIndex[0]: 3
    boneIndex[1]: 0
    boneIndex[2]: 0
    boneIndex[3]: 0
  - weight[0]: 1
    weight[1]: 0
    weight[2]: 0
    weight[3]: 0
    boneIndex[0]: 3
    boneIndex[1]: 0
    boneIndex[2]: 0
    boneIndex[3]: 0
  - weight[0]: 1
    weight[1]: 0
    weight[2]: 0
    weight[3]: 0
    boneIndex[0]: 0
    boneIndex[1]: 0
    boneIndex[2]: 0
    boneIndex[3]: 0
  - weight[0]: 1
    weight[1]: 0
    weight[2]: 0
    weight[3]: 0
    boneIndex[0]: 1
    boneIndex[1]: 0
    boneIndex[2]: 0
    boneIndex[3]: 0
  - weight[0]: 1
    weight[1]: 0
    weight[2]: 0
    weight[3]: 0
    boneIndex[0]: 1
    boneIndex[1]: 0
    boneIndex[2]: 0
    boneIndex[3]: 0
  - weight[0]: 1
    weight[1]: 0
    weight[2]: 0
    weight[3]: 0
    boneIndex[0]: 2
    boneIndex[1]: 0
    boneIndex[2]: 0
    boneIndex[3]: 0
  - weight[0]: 1
    weight[1]: 0
    weight[2]: 0
    weight[3]: 0
    boneIndex[0]: 2
    boneIndex[1]: 0
    boneIndex[2]: 0
    boneIndex[3]: 0
  m_VertexData:
    m_CurrentChannels: 31
    m_VertexCount: 8
    m_Channels:
    - stream: 0
      offset: 0
      format: 0
      dimension: 3
    - stream: 0
      offset: 12
      format: 0
      dimension: 3
    - stream: 1
      offset: 0
      format: 2
      dimension: 4
    - stream: 1
      offset: 4
      format: 0
      dimension: 2
    - stream: 1
      offset: 12
      format: 0
      dimension: 2
    - stream: 0
      offset: 0
      format: 0
      dimension: 0
    - stream: 0
      offset: 0
      format: 0
      dimension: 0
    - stream: 0
      offset: 0
      format: 0
      dimension: 0
    m_DataSize: 352
    _typelessdata: c51b1c428a551543dd608d41000000000000803f000000008a3798418a551543dd608d41000000000000803f000000008a3798418a551543b6a40b43000000000000803f00000000c51b1c428a551543b6a40b43000000000000803f00000000c51b6c428a551543dd608d415a69ab3af2ff7f3f580e6139c51b6c428a551543b6a40b4333a1ad3af2ff7f3fe7f76339e20d9e428a551543dd608d4129d92b3bc6ff7f3f25a1e139e20d9e429f3a154388090c4329d92b3bc6ff7f3f25a1e1390000ff55acaaaa3efeff7f3fe0d7813cd031c43c0000ff0000008033feff7f3fe04a893c1031c43c0000ff000000803300000000e04a893c9375743f0000ff55acaaaa3e00000000e0d7813c9375743f0000ffaaacaa2a3ffeff7f3f40c9743cd031c43c0000ffaaacaa2a3f0000000040c9743c9375743f0000fff60000803ffeff7f3f40e3653c1032c43c0000ffff0000803f0000000040e3653c9375743f
  m_CompressedMesh:
    m_Vertices:
      m_NumItems: 0
      m_Range: 0
      m_Start: 0
      m_Data:
      m_BitSize: 0
    m_UV:
      m_NumItems: 0
      m_Range: 0
      m_Start: 0
      m_Data:
      m_BitSize: 0
    m_Normals:
      m_NumItems: 0
      m_Range: 0
      m_Start: 0
      m_Data:
      m_BitSize: 0
    m_Tangents:
      m_NumItems: 0
      m_Range: 0
      m_Start: 0
      m_Data:
      m_BitSize: 0
    m_Weights:
      m_NumItems: 0
      m_Data:
      m_BitSize: 0
    m_NormalSigns:
      m_NumItems: 0
      m_Data:
      m_BitSize: 0
    m_TangentSigns:
      m_NumItems: 0
      m_Data:
      m_BitSize: 0
    m_FloatColors:
      m_NumItems: 0
      m_Range: 0
      m_Start: 0
      m_Data:
      m_BitSize: 0
    m_BoneIndices:
      m_NumItems: 0
      m_Data:
      m_BitSize: 0
    m_Triangles:
      m_NumItems: 0
      m_Data:
      m_BitSize: 0
    m_UVInfo: 0
  m_LocalAABB:
    m_Center: {x: 49.027115, y: 149.28156, z: 78.85477}
    m_Extent: {x: 29.999998, y: 0.052574158, z: 61.18247}
  m_MeshUsageFlags: 1
  m_BakedConvexCollisionMesh:
  m_BakedTriangleCollisionMesh:
  m_MeshOptimized: 1
