%YAML 1.1
%TAG !u! tag:unity3d.com,2011:
--- !u!43 &4300000
Mesh:
  serializedVersion: 8
  m_ObjectHideFlags: 0
  m_PrefabParentObject: {fileID: 0}
  m_PrefabInternal: {fileID: 0}
  m_Name: wpn__onehanded_sword_02_01__trail_r
  m_SubMeshes:
  - serializedVersion: 2
    firstByte: 0
    indexCount: 18
    topology: 0
    firstVertex: 0
    vertexCount: 8
    localAABB:
      m_Center: {x: 48.94432, y: 149.2803, z: 91.06368}
      m_Extent: {x: 30.082794, y: 0.053840637, z: 40.18116}
  m_Shapes:
    vertices: []
    shapes: []
    channels: []
    fullWeights: []
  m_BindPose:
  - e00: 1
    e01: 1.9706459E-15
    e02: -1.3322676E-15
    e03: -19.098064
    e10: 1.9706459E-15
    e11: -1
    e12: -6.339714E-15
    e13: 149.33412
    e20: -1.3322676E-15
    e21: 6.339714E-15
    e22: -1
    e23: 91.20297
    e30: 0
    e31: 0
    e32: 0
    e33: 1
  - e00: 1
    e01: 1.9706459E-15
    e02: -1.3322676E-15
    e03: -39.09779
    e10: 1.9706459E-15
    e11: -1
    e12: -6.339714E-15
    e13: 149.33412
    e20: -1.3322676E-15
    e21: 6.339714E-15
    e22: -1
    e23: 91.20297
    e30: 0
    e31: 0
    e32: 0
    e33: 1
  - e00: 1
    e01: 1.9706459E-15
    e02: -1.3322676E-15
    e03: -59.09751
    e10: 1.9706459E-15
    e11: -1
    e12: -6.339714E-15
    e13: 149.33412
    e20: -1.3322676E-15
    e21: 6.339714E-15
    e22: -1
    e23: 91.20297
    e30: 0
    e31: 0
    e32: 0
    e33: 1
  - e00: 1
    e01: 1.9706459E-15
    e02: -1.3322676E-15
    e03: -79.09724
    e10: 1.9706459E-15
    e11: -1
    e12: -6.339714E-15
    e13: 149.33412
    e20: -1.3322676E-15
    e21: 6.339714E-15
    e22: -1
    e23: 91.20297
    e30: 0
    e31: 0
    e32: 0
    e33: 1
  m_BoneNameHashes:
  - 2070506951
  - 4079931994
  - 3799052471
  - 386922159
  m_RootBoneNameHash: 386922159
  m_MeshCompression: 0
  m_IsReadable: 1
  m_KeepVertices: 1
  m_KeepIndices: 1
  m_IndexBuffer: 000001000200000002000300040000000300040003000500060004000500060005000700
  m_Skin:
  - weight[0]: 1
    weight[1]: 0
    weight[2]: 0
    weight[3]: 0
    boneIndex[0]: 1
    boneIndex[1]: 0
    boneIndex[2]: 0
    boneIndex[3]: 0
  - weight[0]: 1
    weight[1]: 0
    weight[2]: 0
    weight[3]: 0
    boneIndex[0]: 0
    boneIndex[1]: 0
    boneIndex[2]: 0
    boneIndex[3]: 0
  - weight[0]: 1
    weight[1]: 0
    weight[2]: 0
    weight[3]: 0
    boneIndex[0]: 0
    boneIndex[1]: 0
    boneIndex[2]: 0
    boneIndex[3]: 0
  - weight[0]: 1
    weight[1]: 0
    weight[2]: 0
    weight[3]: 0
    boneIndex[0]: 1
    boneIndex[1]: 0
    boneIndex[2]: 0
    boneIndex[3]: 0
  - weight[0]: 1
    weight[1]: 0
    weight[2]: 0
    weight[3]: 0
    boneIndex[0]: 2
    boneIndex[1]: 0
    boneIndex[2]: 0
    boneIndex[3]: 0
  - weight[0]: 1
    weight[1]: 0
    weight[2]: 0
    weight[3]: 0
    boneIndex[0]: 2
    boneIndex[1]: 0
    boneIndex[2]: 0
    boneIndex[3]: 0
  - weight[0]: 1
    weight[1]: 0
    weight[2]: 0
    weight[3]: 0
    boneIndex[0]: 3
    boneIndex[1]: 0
    boneIndex[2]: 0
    boneIndex[3]: 0
  - weight[0]: 1
    weight[1]: 0
    weight[2]: 0
    weight[3]: 0
    boneIndex[0]: 3
    boneIndex[1]: 0
    boneIndex[2]: 0
    boneIndex[3]: 0
  m_VertexData:
    m_CurrentChannels: 31
    m_VertexCount: 8
    m_Channels:
    - stream: 0
      offset: 0
      format: 0
      dimension: 3
    - stream: 0
      offset: 12
      format: 0
      dimension: 3
    - stream: 1
      offset: 0
      format: 2
      dimension: 4
    - stream: 1
      offset: 4
      format: 0
      dimension: 2
    - stream: 1
      offset: 12
      format: 0
      dimension: 2
    - stream: 0
      offset: 0
      format: 0
      dimension: 0
    - stream: 0
      offset: 0
      format: 0
      dimension: 0
    - stream: 0
      offset: 0
      format: 0
      dimension: 0
    m_DataSize: 352
    _typelessdata: c51b1c428a551543b4874b42000000000000803f3e8804388a3798418a551543b4874b42000000000000803f3e88043869e49641e4541543dcd90243000000000000803f3f88043835721b42e4541543dcd90243000000000000803f3f880438c51b6c428a551543b4874b426e44ac3af0ff7f3f2663be3935726b42e4541543dcd90243c8e2ac3af0ff7f3fec02bf39e20d9e428a551543b4874b42c7d32b3bc2ff7f3ff6a8353a1ab99d42f9391543ae3e0343c8d32b3bc2ff7f3ff7a8353aff000055acaaaa3efeff7f3fc430dd3d2fc1bd3eff00000000008033feff7f3f840ddf3d2ac1bd3eff0000000000803300000000840ddf3d398a6a3fff000055acaaaa3e00000000c430dd3d398a6a3fff0000aaacaa2a3ffeff7f3ff453db3d2fc1bd3eff0000aaacaa2a3f00000000f453db3d398a6a3fff0000f60000803ffeff7f3f3477d93d31c1bd3eff0000ff0000803f000000003477d93d398a6a3f
  m_CompressedMesh:
    m_Vertices:
      m_NumItems: 0
      m_Range: 0
      m_Start: 0
      m_Data:
      m_BitSize: 0
    m_UV:
      m_NumItems: 0
      m_Range: 0
      m_Start: 0
      m_Data:
      m_BitSize: 0
    m_Normals:
      m_NumItems: 0
      m_Range: 0
      m_Start: 0
      m_Data:
      m_BitSize: 0
    m_Tangents:
      m_NumItems: 0
      m_Range: 0
      m_Start: 0
      m_Data:
      m_BitSize: 0
    m_Weights:
      m_NumItems: 0
      m_Data:
      m_BitSize: 0
    m_NormalSigns:
      m_NumItems: 0
      m_Data:
      m_BitSize: 0
    m_TangentSigns:
      m_NumItems: 0
      m_Data:
      m_BitSize: 0
    m_FloatColors:
      m_NumItems: 0
      m_Range: 0
      m_Start: 0
      m_Data:
      m_BitSize: 0
    m_BoneIndices:
      m_NumItems: 0
      m_Data:
      m_BitSize: 0
    m_Triangles:
      m_NumItems: 0
      m_Data:
      m_BitSize: 0
    m_UVInfo: 0
  m_LocalAABB:
    m_Center: {x: 48.94432, y: 149.2803, z: 91.06368}
    m_Extent: {x: 30.082794, y: 0.053840637, z: 40.18116}
  m_MeshUsageFlags: 1
  m_BakedConvexCollisionMesh:
  m_BakedTriangleCollisionMesh:
  m_MeshOptimized: 1
