%YAML 1.1
%TAG !u! tag:unity3d.com,2011:
--- !u!43 &4300000
Mesh:
  serializedVersion: 8
  m_ObjectHideFlags: 0
  m_PrefabParentObject: {fileID: 0}
  m_PrefabInternal: {fileID: 0}
  m_Name: wpn__guandao_01_03__trail_r
  m_SubMeshes:
  - serializedVersion: 2
    firstByte: 0
    indexCount: 18
    topology: 0
    firstVertex: 0
    vertexCount: 8
    localAABB:
      m_Center: {x: -49.027115, y: 149.31743, z: 111.96147}
      m_Extent: {x: 29.999998, y: 0, z: 32.82887}
  m_Shapes:
    vertices: []
    shapes: []
    channels: []
    fullWeights: []
  m_BindPose:
  - e00: -1
    e01: -0
    e02: -0
    e03: -19.027527
    e10: -0
    e11: -1
    e12: 0
    e13: 149.33412
    e20: -0
    e21: 0
    e22: -1
    e23: 113.48328
    e30: 0
    e31: 0
    e32: 0
    e33: 1
  - e00: -1
    e01: -0
    e02: -0
    e03: -39.02725
    e10: -0
    e11: -1
    e12: 0
    e13: 149.33412
    e20: -0
    e21: 0
    e22: -1
    e23: 113.37801
    e30: 0
    e31: 0
    e32: 0
    e33: 1
  - e00: -1
    e01: -0
    e02: -0
    e03: -59.026974
    e10: -0
    e11: -1
    e12: 0
    e13: 149.33412
    e20: -0
    e21: 0
    e22: -1
    e23: 113.27275
    e30: 0
    e31: 0
    e32: 0
    e33: 1
  - e00: -1
    e01: -0
    e02: -0
    e03: -79.026695
    e10: -0
    e11: -1
    e12: 0
    e13: 149.33412
    e20: -0
    e21: 0
    e22: -1
    e23: 113.16748
    e30: 0
    e31: 0
    e32: 0
    e33: 1
  m_BoneNameHashes:
  - 2771240752
  - 2068895660
  - 1287247136
  - 950390470
  m_RootBoneNameHash: 950390470
  m_MeshCompression: 0
  m_IsReadable: 1
  m_KeepVertices: 1
  m_KeepIndices: 1
  m_IndexBuffer: 000001000200000002000300040001000000040005000100060005000400060007000500
  m_Skin:
  - weight[0]: 1
    weight[1]: 0
    weight[2]: 0
    weight[3]: 0
    boneIndex[0]: 1
    boneIndex[1]: 0
    boneIndex[2]: 0
    boneIndex[3]: 0
  - weight[0]: 1
    weight[1]: 0
    weight[2]: 0
    weight[3]: 0
    boneIndex[0]: 1
    boneIndex[1]: 0
    boneIndex[2]: 0
    boneIndex[3]: 0
  - weight[0]: 1
    weight[1]: 0
    weight[2]: 0
    weight[3]: 0
    boneIndex[0]: 0
    boneIndex[1]: 0
    boneIndex[2]: 0
    boneIndex[3]: 0
  - weight[0]: 1
    weight[1]: 0
    weight[2]: 0
    weight[3]: 0
    boneIndex[0]: 0
    boneIndex[1]: 0
    boneIndex[2]: 0
    boneIndex[3]: 0
  - weight[0]: 1
    weight[1]: 0
    weight[2]: 0
    weight[3]: 0
    boneIndex[0]: 2
    boneIndex[1]: 0
    boneIndex[2]: 0
    boneIndex[3]: 0
  - weight[0]: 1
    weight[1]: 0
    weight[2]: 0
    weight[3]: 0
    boneIndex[0]: 2
    boneIndex[1]: 0
    boneIndex[2]: 0
    boneIndex[3]: 0
  - weight[0]: 1
    weight[1]: 0
    weight[2]: 0
    weight[3]: 0
    boneIndex[0]: 3
    boneIndex[1]: 0
    boneIndex[2]: 0
    boneIndex[3]: 0
  - weight[0]: 1
    weight[1]: 0
    weight[2]: 0
    weight[3]: 0
    boneIndex[0]: 3
    boneIndex[1]: 0
    boneIndex[2]: 0
    boneIndex[3]: 0
  m_VertexData:
    m_CurrentChannels: 27
    m_VertexCount: 8
    m_Channels:
    - stream: 0
      offset: 0
      format: 0
      dimension: 3
    - stream: 0
      offset: 12
      format: 0
      dimension: 3
    - stream: 0
      offset: 0
      format: 0
      dimension: 0
    - stream: 1
      offset: 0
      format: 0
      dimension: 2
    - stream: 1
      offset: 8
      format: 0
      dimension: 2
    - stream: 0
      offset: 0
      format: 0
      dimension: 0
    - stream: 0
      offset: 0
      format: 0
      dimension: 0
    - stream: 0
      offset: 0
      format: 0
      dimension: 0
    m_DataSize: 320
    _typelessdata: c51b1cc243511543e5439e42000000000000803f00000000c51b1cc24351154354ca1043000000000000803f000000008a3798c14351154354ca1043000000000000803f000000008a3798c143511543e5439e42000000000000803f00000000c51b6cc243511543e5439e42000000000000803f00000000c51b6cc243511543f4810f43000000000000803f00000000e20d9ec243511543e5439e42000000000000803f00000000e20d9ec24351154352b90a43000000000000803f00000000acaaaa3efeff7f3f6285d43ec036643cacaaaa3e000080b46285d43e00673b3f00008033000080b4b4c4d73e00673b3f00008033feff7f3fb2c4d73ec036643cacaa2a3ffeff7f3f1046d13ec036643cacaa2a3f000080b40f46d13e00673b3f0000803ffeff7f3fbc06ce3e8036643c6aed773fc0b8173dc006ce3eff663b3f
  m_CompressedMesh:
    m_Vertices:
      m_NumItems: 0
      m_Range: 0
      m_Start: 0
      m_Data:
      m_BitSize: 0
    m_UV:
      m_NumItems: 0
      m_Range: 0
      m_Start: 0
      m_Data:
      m_BitSize: 0
    m_Normals:
      m_NumItems: 0
      m_Range: 0
      m_Start: 0
      m_Data:
      m_BitSize: 0
    m_Tangents:
      m_NumItems: 0
      m_Range: 0
      m_Start: 0
      m_Data:
      m_BitSize: 0
    m_Weights:
      m_NumItems: 0
      m_Data:
      m_BitSize: 0
    m_NormalSigns:
      m_NumItems: 0
      m_Data:
      m_BitSize: 0
    m_TangentSigns:
      m_NumItems: 0
      m_Data:
      m_BitSize: 0
    m_FloatColors:
      m_NumItems: 0
      m_Range: 0
      m_Start: 0
      m_Data:
      m_BitSize: 0
    m_BoneIndices:
      m_NumItems: 0
      m_Data:
      m_BitSize: 0
    m_Triangles:
      m_NumItems: 0
      m_Data:
      m_BitSize: 0
    m_UVInfo: 0
  m_LocalAABB:
    m_Center: {x: -49.027115, y: 149.31743, z: 111.96147}
    m_Extent: {x: 29.999998, y: 0, z: 32.82887}
  m_MeshUsageFlags: 1
  m_BakedConvexCollisionMesh:
  m_BakedTriangleCollisionMesh:
  m_MeshOptimized: 1
